<?xml version="1.0" encoding="utf-8" standalone="no"?>
<!DOCTYPE svg PUBLIC "-//W3C//DTD SVG 1.1//EN"
  "http://www.w3.org/Graphics/SVG/1.1/DTD/svg11.dtd">
<svg xmlns:xlink="http://www.w3.org/1999/xlink" width="360pt" height="360pt" viewBox="0 0 360 360" xmlns="http://www.w3.org/2000/svg" version="1.1">
 <metadata>
  <rdf:RDF xmlns:dc="http://purl.org/dc/elements/1.1/" xmlns:cc="http://creativecommons.org/ns#" xmlns:rdf="http://www.w3.org/1999/02/22-rdf-syntax-ns#">
   <cc:Work>
    <dc:type rdf:resource="http://purl.org/dc/dcmitype/StillImage"/>
    <dc:date>2024-07-23T11:57:57.778795</dc:date>
    <dc:format>image/svg+xml</dc:format>
    <dc:creator>
     <cc:Agent>
      <dc:title>Matplotlib v3.9.0, https://matplotlib.org/</dc:title>
     </cc:Agent>
    </dc:creator>
   </cc:Work>
  </rdf:RDF>
 </metadata>
 <defs>
  <style type="text/css">*{stroke-linejoin: round; stroke-linecap: butt}</style>
 </defs>
 <g id="figure_1">
  <g id="patch_1">
   <path d="M 0 360 
L 360 360 
L 360 0 
L 0 0 
z
" style="fill: #ffffff"/>
  </g>
  <g id="axes_1">
   <g id="patch_2">
    <path d="M 50.25 276.014627 
L 349.2 276.014627 
L 349.2 10.8 
L 50.25 10.8 
z
" style="fill: #ffffff"/>
   </g>
   <g id="PolyCollection_1">
    <path d="M 72.908639 249.977291 
L 72.886815 249.977291 
L 72.859671 245.558447 
L 72.796603 241.139602 
L 72.65232 236.720758 
L 72.368566 232.301914 
L 71.900075 227.883069 
L 71.239108 223.464225 
L 70.384825 219.045381 
L 69.361505 214.626536 
L 68.298547 210.207692 
L 67.241082 205.788848 
L 66.198614 201.370003 
L 65.208087 196.951159 
L 64.514406 192.532315 
L 64.156841 188.11347 
L 63.920484 183.694626 
L 63.838636 179.275782 
L 63.883989 174.856937 
L 64.076215 170.438093 
L 64.488461 166.019249 
L 64.992443 161.600404 
L 65.572612 157.18156 
L 66.126319 152.762716 
L 66.613951 148.343871 
L 67.156889 143.925027 
L 67.718292 139.506183 
L 68.250522 135.087338 
L 68.762905 130.668494 
L 69.271325 126.249649 
L 69.737502 121.830805 
L 70.087687 117.411961 
L 70.414027 112.993116 
L 70.736555 108.574272 
L 71.001319 104.155428 
L 71.259188 99.736583 
L 71.472595 95.317739 
L 71.64583 90.898895 
L 71.812585 86.48005 
L 71.962179 82.061206 
L 72.106175 77.642362 
L 72.227634 73.223517 
L 72.316251 68.804673 
L 72.394289 64.385829 
L 72.461427 59.966984 
L 72.517018 55.54814 
L 72.55705 51.129296 
L 72.606686 46.710451 
L 72.66214 42.291607 
L 72.709409 37.872763 
L 72.73537 33.453918 
L 72.753268 29.035074 
L 72.780654 24.61623 
L 72.800673 20.197385 
L 72.816842 15.778541 
L 72.824845 11.359697 
L 72.834356 6.940852 
L 72.849384 2.522008 
L 72.856152 -1.896836 
L 72.859391 -6.315681 
L 72.862515 -10.734525 
L 72.867968 -15.15337 
L 72.873627 -19.572214 
L 72.875983 -23.991058 
L 72.876069 -28.409903 
L 72.876787 -32.828747 
L 72.880992 -37.247591 
L 72.887642 -41.666436 
L 72.890426 -46.08528 
L 72.890576 -50.504124 
L 72.891899 -54.922969 
L 72.894213 -59.341813 
L 72.895869 -63.760657 
L 72.896553 -68.179502 
L 72.896096 -72.598346 
L 72.895426 -77.01719 
L 72.895673 -81.436035 
L 72.895129 -85.854879 
L 72.894142 -90.273723 
L 72.895034 -94.692568 
L 72.896485 -99.111412 
L 72.897061 -103.530256 
L 72.896222 -107.949101 
L 72.895832 -112.367945 
L 72.89581 -116.786789 
L 72.896226 -121.205634 
L 72.896786 -125.624478 
L 72.897425 -130.043322 
L 72.897699 -134.462167 
L 72.897727 -138.881011 
L 72.897727 -143.299856 
L 72.897727 -147.7187 
L 72.897727 -152.137544 
L 72.897727 -156.556389 
L 72.897721 -160.975233 
L 72.897602 -165.394077 
L 72.897126 -169.812922 
L 72.896979 -174.231766 
L 72.897274 -178.65061 
L 72.896631 -183.069455 
L 72.896251 -187.488299 
L 72.899204 -187.488299 
L 72.899204 -187.488299 
L 72.898824 -183.069455 
L 72.89818 -178.65061 
L 72.898475 -174.231766 
L 72.898329 -169.812922 
L 72.897853 -165.394077 
L 72.897734 -160.975233 
L 72.897727 -156.556389 
L 72.897727 -152.137544 
L 72.897727 -147.7187 
L 72.897727 -143.299856 
L 72.897728 -138.881011 
L 72.897756 -134.462167 
L 72.89803 -130.043322 
L 72.898669 -125.624478 
L 72.899229 -121.205634 
L 72.899644 -116.786789 
L 72.899623 -112.367945 
L 72.899232 -107.949101 
L 72.898394 -103.530256 
L 72.89897 -99.111412 
L 72.900421 -94.692568 
L 72.901313 -90.273723 
L 72.900325 -85.854879 
L 72.899781 -81.436035 
L 72.900028 -77.01719 
L 72.899358 -72.598346 
L 72.898901 -68.179502 
L 72.899585 -63.760657 
L 72.901242 -59.341813 
L 72.903555 -54.922969 
L 72.904879 -50.504124 
L 72.905029 -46.08528 
L 72.907812 -41.666436 
L 72.914462 -37.247591 
L 72.918668 -32.828747 
L 72.919385 -28.409903 
L 72.919472 -23.991058 
L 72.921828 -19.572214 
L 72.927486 -15.15337 
L 72.93294 -10.734525 
L 72.936063 -6.315681 
L 72.939302 -1.896836 
L 72.946071 2.522008 
L 72.961098 6.940852 
L 72.970609 11.359697 
L 72.978612 15.778541 
L 72.994782 20.197385 
L 73.014801 24.61623 
L 73.042187 29.035074 
L 73.060084 33.453918 
L 73.086046 37.872763 
L 73.133315 42.291607 
L 73.188769 46.710451 
L 73.238404 51.129296 
L 73.278436 55.54814 
L 73.334028 59.966984 
L 73.401166 64.385829 
L 73.479203 68.804673 
L 73.567821 73.223517 
L 73.68928 77.642362 
L 73.833275 82.061206 
L 73.98287 86.48005 
L 74.149625 90.898895 
L 74.322859 95.317739 
L 74.536267 99.736583 
L 74.794136 104.155428 
L 75.0589 108.574272 
L 75.381428 112.993116 
L 75.707767 117.411961 
L 76.057952 121.830805 
L 76.524129 126.249649 
L 77.032549 130.668494 
L 77.544933 135.087338 
L 78.077163 139.506183 
L 78.638565 143.925027 
L 79.181504 148.343871 
L 79.669135 152.762716 
L 80.222842 157.18156 
L 80.803012 161.600404 
L 81.306994 166.019249 
L 81.71924 170.438093 
L 81.911466 174.856937 
L 81.956818 179.275782 
L 81.874971 183.694626 
L 81.638614 188.11347 
L 81.281049 192.532315 
L 80.587368 196.951159 
L 79.59684 201.370003 
L 78.554373 205.788848 
L 77.496907 210.207692 
L 76.433949 214.626536 
L 75.410629 219.045381 
L 74.556346 223.464225 
L 73.895379 227.883069 
L 73.426889 232.301914 
L 73.143135 236.720758 
L 72.998851 241.139602 
L 72.935784 245.558447 
L 72.908639 249.977291 
z
" clip-path="url(#p9d2ffb4fe9)" style="fill: #348abd; fill-opacity: 0.3"/>
   </g>
   <g id="PolyCollection_2">
    <path d="M 113.51327 216.48665 
L 104.754912 216.48665 
L 103.549711 215.512118 
L 102.474542 214.537585 
L 101.620305 213.563053 
L 101.014713 212.588521 
L 100.631515 211.613989 
L 100.416159 210.639457 
L 100.310649 209.664925 
L 100.267887 208.690393 
L 100.255653 207.71586 
L 100.254977 206.741328 
L 100.256965 205.766796 
L 100.259546 204.792264 
L 100.264232 203.817732 
L 100.273073 202.8432 
L 100.286584 201.868667 
L 100.303232 200.894135 
L 100.320304 199.919603 
L 100.335153 198.945071 
L 100.3459 197.970539 
L 100.351256 196.996007 
L 100.349905 196.021475 
L 100.340307 195.046942 
L 100.321447 194.07241 
L 100.2942 193.097878 
L 100.262127 192.123346 
L 100.23075 191.148814 
L 100.205497 190.174282 
L 100.189608 189.199749 
L 100.183145 188.225217 
L 100.183348 187.250685 
L 100.185796 186.276153 
L 100.185859 185.301621 
L 100.180177 184.327089 
L 100.167792 183.352557 
L 100.150311 182.378024 
L 100.130805 181.403492 
L 100.112082 180.42896 
L 100.095731 179.454428 
L 100.082744 178.479896 
L 100.075 177.505364 
L 100.075886 176.530831 
L 100.08905 175.556299 
L 100.11598 174.581767 
L 100.154208 173.607235 
L 100.197375 172.632703 
L 100.237047 171.658171 
L 100.265464 170.683638 
L 100.278356 169.709106 
L 100.276886 168.734574 
L 100.267381 167.760042 
L 100.258021 166.78551 
L 100.253766 165.810978 
L 100.252924 164.836446 
L 100.248313 163.861913 
L 100.23254 162.887381 
L 100.203436 161.912849 
L 100.165756 160.938317 
L 100.128549 159.963785 
L 100.100928 158.989253 
L 100.089038 158.01472 
L 100.09485 157.040188 
L 100.115905 156.065656 
L 100.145528 155.091124 
L 100.17412 154.116592 
L 100.19193 153.14206 
L 100.192579 152.167528 
L 100.175634 151.192995 
L 100.146793 150.218463 
L 100.115364 149.243931 
L 100.090359 148.269399 
L 100.07754 147.294867 
L 100.079103 146.320335 
L 100.095404 145.345802 
L 100.126143 144.37127 
L 100.169001 143.396738 
L 100.216736 142.422206 
L 100.256298 141.447674 
L 100.272837 140.473142 
L 100.25756 139.498609 
L 100.21443 138.524077 
L 100.160239 137.549545 
L 100.116701 136.575013 
L 100.099026 135.600481 
L 100.108432 134.625949 
L 100.133432 133.651417 
L 100.158456 132.676884 
L 100.173443 131.702352 
L 100.178313 130.72782 
L 100.180829 129.753288 
L 100.191404 128.778756 
L 100.220176 127.804224 
L 100.279792 126.829691 
L 100.393248 125.855159 
L 100.601813 124.880627 
L 100.965027 123.906095 
L 101.545764 122.931563 
L 102.380852 121.957031 
L 103.449987 120.982499 
L 104.663467 120.007966 
L 113.604715 120.007966 
L 113.604715 120.007966 
L 114.818195 120.982499 
L 115.88733 121.957031 
L 116.722418 122.931563 
L 117.303155 123.906095 
L 117.666369 124.880627 
L 117.874934 125.855159 
L 117.98839 126.829691 
L 118.048006 127.804224 
L 118.076778 128.778756 
L 118.087352 129.753288 
L 118.089869 130.72782 
L 118.094738 131.702352 
L 118.109726 132.676884 
L 118.13475 133.651417 
L 118.15975 134.625949 
L 118.169156 135.600481 
L 118.15148 136.575013 
L 118.107943 137.549545 
L 118.053752 138.524077 
L 118.010622 139.498609 
L 117.995345 140.473142 
L 118.011884 141.447674 
L 118.051446 142.422206 
L 118.099181 143.396738 
L 118.142039 144.37127 
L 118.172778 145.345802 
L 118.189079 146.320335 
L 118.190642 147.294867 
L 118.177823 148.269399 
L 118.152818 149.243931 
L 118.121389 150.218463 
L 118.092548 151.192995 
L 118.075603 152.167528 
L 118.076251 153.14206 
L 118.094062 154.116592 
L 118.122654 155.091124 
L 118.152277 156.065656 
L 118.173331 157.040188 
L 118.179144 158.01472 
L 118.167253 158.989253 
L 118.139633 159.963785 
L 118.102426 160.938317 
L 118.064745 161.912849 
L 118.035642 162.887381 
L 118.019868 163.861913 
L 118.015258 164.836446 
L 118.014416 165.810978 
L 118.010161 166.78551 
L 118.000801 167.760042 
L 117.991296 168.734574 
L 117.989826 169.709106 
L 118.002718 170.683638 
L 118.031135 171.658171 
L 118.070807 172.632703 
L 118.113974 173.607235 
L 118.152202 174.581767 
L 118.179132 175.556299 
L 118.192296 176.530831 
L 118.193182 177.505364 
L 118.185437 178.479896 
L 118.172451 179.454428 
L 118.1561 180.42896 
L 118.137377 181.403492 
L 118.11787 182.378024 
L 118.10039 183.352557 
L 118.088004 184.327089 
L 118.082323 185.301621 
L 118.082386 186.276153 
L 118.084834 187.250685 
L 118.085037 188.225217 
L 118.078574 189.199749 
L 118.062684 190.174282 
L 118.037432 191.148814 
L 118.006054 192.123346 
L 117.973982 193.097878 
L 117.946735 194.07241 
L 117.927875 195.046942 
L 117.918277 196.021475 
L 117.916926 196.996007 
L 117.922282 197.970539 
L 117.933029 198.945071 
L 117.947878 199.919603 
L 117.964949 200.894135 
L 117.981598 201.868667 
L 117.995108 202.8432 
L 118.00395 203.817732 
L 118.008635 204.792264 
L 118.011217 205.766796 
L 118.013205 206.741328 
L 118.012529 207.71586 
L 118.000294 208.690393 
L 117.957533 209.664925 
L 117.852022 210.639457 
L 117.636666 211.613989 
L 117.253469 212.588521 
L 116.647877 213.563053 
L 115.79364 214.537585 
L 114.718471 215.512118 
L 113.51327 216.48665 
z
" clip-path="url(#p9d2ffb4fe9)" style="fill: #348abd; fill-opacity: 0.3"/>
   </g>
   <g id="PolyCollection_3">
    <path d="M 145.737863 275.629376 
L 145.003046 275.629376 
L 144.576576 272.558225 
L 144.012018 269.487074 
L 143.381624 266.415923 
L 142.725039 263.344772 
L 142.070126 260.273621 
L 141.436659 257.20247 
L 140.816144 254.131319 
L 140.210918 251.060168 
L 139.654478 247.989017 
L 139.162264 244.917867 
L 138.713452 241.846716 
L 138.293659 238.775565 
L 137.906478 235.704414 
L 137.554903 232.633263 
L 137.247617 229.562112 
L 136.994397 226.490961 
L 136.790028 223.41981 
L 136.61627 220.348659 
L 136.46591 217.277508 
L 136.359757 214.206357 
L 136.315029 211.135206 
L 136.311364 208.064055 
L 136.324246 204.992905 
L 136.369621 201.921754 
L 136.473594 198.850603 
L 136.622393 195.779452 
L 136.783576 192.708301 
L 136.968669 189.63715 
L 137.205462 186.565999 
L 137.482361 183.494848 
L 137.77789 180.423697 
L 138.092303 177.352546 
L 138.412401 174.281395 
L 138.707949 171.210244 
L 138.986337 168.139093 
L 139.278844 165.067942 
L 139.589352 161.996792 
L 139.907031 158.925641 
L 140.226744 155.85449 
L 140.541892 152.783339 
L 140.845872 149.712188 
L 141.137012 146.641037 
L 141.411128 143.569886 
L 141.677118 140.498735 
L 141.961508 137.427584 
L 142.254383 134.356433 
L 142.515322 131.285282 
L 142.745364 128.214131 
L 142.975907 125.14298 
L 143.211279 122.07183 
L 143.42974 119.000679 
L 143.616968 115.929528 
L 143.784428 112.858377 
L 143.954913 109.787226 
L 144.120663 106.716075 
L 144.252632 103.644924 
L 144.351468 100.573773 
L 144.441786 97.502622 
L 144.539585 94.431471 
L 144.643372 91.36032 
L 144.741893 88.289169 
L 144.827651 85.218018 
L 144.900507 82.146868 
L 144.96171 79.075717 
L 145.013251 76.004566 
L 145.060746 72.933415 
L 145.107242 69.862264 
L 145.146823 66.791113 
L 145.176257 63.719962 
L 145.20155 60.648811 
L 145.225418 57.57766 
L 145.24504 54.506509 
L 145.259621 51.435358 
L 145.272215 48.364207 
L 145.284755 45.293056 
L 145.295543 42.221905 
L 145.303124 39.150755 
L 145.310533 36.079604 
L 145.32142 33.008453 
L 145.332416 29.937302 
L 145.339157 26.866151 
L 145.343488 23.795 
L 145.34839 20.723849 
L 145.353336 17.652698 
L 145.357377 14.581547 
L 145.360673 11.510396 
L 145.362703 8.439245 
L 145.363873 5.368094 
L 145.36556 2.296943 
L 145.367508 -0.774207 
L 145.368748 -3.845358 
L 145.369293 -6.916509 
L 145.369426 -9.98766 
L 145.369428 -13.058811 
L 145.369631 -16.129962 
L 145.36981 -19.201113 
L 145.369482 -22.272264 
L 145.368838 -25.343415 
L 145.368694 -28.414566 
L 145.372215 -28.414566 
L 145.372215 -28.414566 
L 145.372071 -25.343415 
L 145.371427 -22.272264 
L 145.371099 -19.201113 
L 145.371279 -16.129962 
L 145.371481 -13.058811 
L 145.371483 -9.98766 
L 145.371616 -6.916509 
L 145.372161 -3.845358 
L 145.373401 -0.774207 
L 145.37535 2.296943 
L 145.377036 5.368094 
L 145.378207 8.439245 
L 145.380236 11.510396 
L 145.383532 14.581547 
L 145.387573 17.652698 
L 145.392519 20.723849 
L 145.397421 23.795 
L 145.401752 26.866151 
L 145.408493 29.937302 
L 145.419489 33.008453 
L 145.430376 36.079604 
L 145.437786 39.150755 
L 145.445366 42.221905 
L 145.456155 45.293056 
L 145.468694 48.364207 
L 145.481288 51.435358 
L 145.495869 54.506509 
L 145.515491 57.57766 
L 145.539359 60.648811 
L 145.564652 63.719962 
L 145.594086 66.791113 
L 145.633667 69.862264 
L 145.680163 72.933415 
L 145.727658 76.004566 
L 145.779199 79.075717 
L 145.840403 82.146868 
L 145.913258 85.218018 
L 145.999016 88.289169 
L 146.097537 91.36032 
L 146.201324 94.431471 
L 146.299123 97.502622 
L 146.389441 100.573773 
L 146.488277 103.644924 
L 146.620246 106.716075 
L 146.785996 109.787226 
L 146.956482 112.858377 
L 147.123941 115.929528 
L 147.31117 119.000679 
L 147.52963 122.07183 
L 147.765002 125.14298 
L 147.995545 128.214131 
L 148.225587 131.285282 
L 148.486526 134.356433 
L 148.779401 137.427584 
L 149.063792 140.498735 
L 149.329781 143.569886 
L 149.603897 146.641037 
L 149.895037 149.712188 
L 150.199017 152.783339 
L 150.514165 155.85449 
L 150.833878 158.925641 
L 151.151557 161.996792 
L 151.462065 165.067942 
L 151.754572 168.139093 
L 152.03296 171.210244 
L 152.328509 174.281395 
L 152.648606 177.352546 
L 152.963019 180.423697 
L 153.258548 183.494848 
L 153.535447 186.565999 
L 153.77224 189.63715 
L 153.957333 192.708301 
L 154.118516 195.779452 
L 154.267315 198.850603 
L 154.371288 201.921754 
L 154.416663 204.992905 
L 154.429545 208.064055 
L 154.42588 211.135206 
L 154.381152 214.206357 
L 154.274999 217.277508 
L 154.124639 220.348659 
L 153.950881 223.41981 
L 153.746512 226.490961 
L 153.493292 229.562112 
L 153.186006 232.633263 
L 152.834431 235.704414 
L 152.44725 238.775565 
L 152.027457 241.846716 
L 151.578645 244.917867 
L 151.086431 247.989017 
L 150.529991 251.060168 
L 149.924765 254.131319 
L 149.30425 257.20247 
L 148.670783 260.273621 
L 148.01587 263.344772 
L 147.359285 266.415923 
L 146.728891 269.487074 
L 146.164333 272.558225 
L 145.737863 275.629376 
z
" clip-path="url(#p9d2ffb4fe9)" style="fill: #348abd; fill-opacity: 0.3"/>
   </g>
   <g id="PolyCollection_4">
    <path d="M 181.607748 245.334985 
L 181.605889 245.334985 
L 181.605872 243.603599 
L 181.60499 241.872213 
L 181.603041 240.140827 
L 181.601359 238.409441 
L 181.598535 236.678055 
L 181.59395 234.946669 
L 181.587198 233.215283 
L 181.572115 231.483897 
L 181.545794 229.752511 
L 181.500074 228.021125 
L 181.426809 226.289739 
L 181.33957 224.558353 
L 181.246003 222.826967 
L 181.119623 221.095581 
L 180.942959 219.364195 
L 180.727458 217.632809 
L 180.45453 215.901423 
L 180.092156 214.170037 
L 179.657928 212.438651 
L 179.18349 210.707265 
L 178.674123 208.975879 
L 178.160097 207.244493 
L 177.644266 205.513106 
L 177.089996 203.78172 
L 176.509658 202.050334 
L 175.898884 200.318948 
L 175.256175 198.587562 
L 174.655754 196.856176 
L 174.164577 195.12479 
L 173.780985 193.393404 
L 173.472457 191.662018 
L 173.169654 189.930632 
L 172.864298 188.199246 
L 172.640756 186.46786 
L 172.547727 184.736474 
L 172.623189 183.005088 
L 172.806783 181.273702 
L 173.004607 179.542316 
L 173.210662 177.81093 
L 173.472291 176.079544 
L 173.854803 174.348158 
L 174.299295 172.616772 
L 174.723805 170.885386 
L 175.136664 169.154 
L 175.581673 167.422614 
L 176.048198 165.691228 
L 176.508874 163.959842 
L 176.982923 162.228456 
L 177.450211 160.49707 
L 177.876733 158.765684 
L 178.263796 157.034298 
L 178.650429 155.302912 
L 179.026786 153.571526 
L 179.333324 151.84014 
L 179.595225 150.108754 
L 179.855091 148.377368 
L 180.098013 146.645982 
L 180.307872 144.914596 
L 180.483286 143.18321 
L 180.653837 141.451824 
L 180.80128 139.720438 
L 180.907738 137.989052 
L 180.997251 136.257666 
L 181.087814 134.52628 
L 181.170703 132.794894 
L 181.239087 131.063508 
L 181.303479 129.332122 
L 181.368725 127.600736 
L 181.422961 125.86935 
L 181.465815 124.137964 
L 181.493478 122.406578 
L 181.506525 120.675192 
L 181.520374 118.943806 
L 181.537113 117.21242 
L 181.550564 115.481034 
L 181.559109 113.749647 
L 181.567149 112.018261 
L 181.578543 110.286875 
L 181.587834 108.555489 
L 181.591607 106.824103 
L 181.594325 105.092717 
L 181.5972 103.361331 
L 181.599727 101.629945 
L 181.601038 99.898559 
L 181.601123 98.167173 
L 181.600767 96.435787 
L 181.600602 94.704401 
L 181.601734 92.973015 
L 181.603558 91.241629 
L 181.604763 89.510243 
L 181.605736 87.778857 
L 181.606505 86.047471 
L 181.606777 84.316085 
L 181.606816 82.584699 
L 181.606818 80.853313 
L 181.606804 79.121927 
L 181.606676 77.390541 
L 181.606256 75.659155 
L 181.605929 73.927769 
L 181.607707 73.927769 
L 181.607707 73.927769 
L 181.607381 75.659155 
L 181.606961 77.390541 
L 181.606833 79.121927 
L 181.606819 80.853313 
L 181.60682 82.584699 
L 181.606859 84.316085 
L 181.607131 86.047471 
L 181.607901 87.778857 
L 181.608873 89.510243 
L 181.610079 91.241629 
L 181.611903 92.973015 
L 181.613034 94.704401 
L 181.612869 96.435787 
L 181.612513 98.167173 
L 181.612598 99.898559 
L 181.613909 101.629945 
L 181.616436 103.361331 
L 181.619311 105.092717 
L 181.622029 106.824103 
L 181.625803 108.555489 
L 181.635094 110.286875 
L 181.646487 112.018261 
L 181.654528 113.749647 
L 181.663073 115.481034 
L 181.676523 117.21242 
L 181.693262 118.943806 
L 181.707111 120.675192 
L 181.720158 122.406578 
L 181.747821 124.137964 
L 181.790676 125.86935 
L 181.844911 127.600736 
L 181.910158 129.332122 
L 181.974549 131.063508 
L 182.042933 132.794894 
L 182.125822 134.52628 
L 182.216385 136.257666 
L 182.305898 137.989052 
L 182.412356 139.720438 
L 182.5598 141.451824 
L 182.730351 143.18321 
L 182.905765 144.914596 
L 183.115623 146.645982 
L 183.358546 148.377368 
L 183.618412 150.108754 
L 183.880313 151.84014 
L 184.186851 153.571526 
L 184.563207 155.302912 
L 184.949841 157.034298 
L 185.336904 158.765684 
L 185.763425 160.49707 
L 186.230713 162.228456 
L 186.704762 163.959842 
L 187.165438 165.691228 
L 187.631963 167.422614 
L 188.076972 169.154 
L 188.489831 170.885386 
L 188.914341 172.616772 
L 189.358833 174.348158 
L 189.741345 176.079544 
L 190.002974 177.81093 
L 190.20903 179.542316 
L 190.406854 181.273702 
L 190.590447 183.005088 
L 190.665909 184.736474 
L 190.572881 186.46786 
L 190.349339 188.199246 
L 190.043982 189.930632 
L 189.74118 191.662018 
L 189.432652 193.393404 
L 189.04906 195.12479 
L 188.557882 196.856176 
L 187.957461 198.587562 
L 187.314752 200.318948 
L 186.703979 202.050334 
L 186.12364 203.78172 
L 185.56937 205.513106 
L 185.053539 207.244493 
L 184.539513 208.975879 
L 184.030147 210.707265 
L 183.555709 212.438651 
L 183.12148 214.170037 
L 182.759106 215.901423 
L 182.486178 217.632809 
L 182.270678 219.364195 
L 182.094014 221.095581 
L 181.967633 222.826967 
L 181.874067 224.558353 
L 181.786827 226.289739 
L 181.713562 228.021125 
L 181.667843 229.752511 
L 181.641521 231.483897 
L 181.626439 233.215283 
L 181.619686 234.946669 
L 181.615102 236.678055 
L 181.612278 238.409441 
L 181.610595 240.140827 
L 181.608646 241.872213 
L 181.607764 243.603599 
L 181.607748 245.334985 
z
" clip-path="url(#p9d2ffb4fe9)" style="fill: #348abd; fill-opacity: 0.3"/>
   </g>
   <g id="PolyCollection_5">
    <path d="M 222.080648 205.050758 
L 213.605715 205.050758 
L 212.424806 204.506896 
L 211.369101 203.963033 
L 210.529943 203.41917 
L 209.934428 202.875307 
L 209.553151 202.331444 
L 209.326814 201.787582 
L 209.194224 201.243719 
L 209.109768 200.699856 
L 209.047892 200.155993 
L 208.998582 199.612131 
L 208.959686 199.068268 
L 208.930865 198.524405 
L 208.911338 197.980542 
L 208.900635 197.436679 
L 208.899766 196.892817 
L 208.910664 196.348954 
L 208.934014 195.805091 
L 208.967392 195.261228 
L 209.005406 194.717366 
L 209.041714 194.173503 
L 209.071263 193.62964 
L 209.091186 193.085777 
L 209.100171 192.541914 
L 209.097414 191.998052 
L 209.0825 191.454189 
L 209.056632 190.910326 
L 209.02422 190.366463 
L 208.993177 189.822601 
L 208.972954 189.278738 
L 208.971044 188.734875 
L 208.989932 188.191012 
L 209.026276 187.64715 
L 209.072454 187.103287 
L 209.119113 186.559424 
L 209.157312 186.015561 
L 209.180003 185.471698 
L 209.183483 184.927836 
L 209.168801 184.383973 
L 209.141981 183.84011 
L 209.111993 183.296247 
L 209.087183 182.752385 
L 209.072287 182.208522 
L 209.067708 181.664659 
L 209.070775 181.120796 
L 209.077397 180.576933 
L 209.083018 180.033071 
L 209.083135 179.489208 
L 209.074286 178.945345 
L 209.055615 178.401482 
L 209.030011 177.85762 
L 209.003608 177.313757 
L 208.983489 176.769894 
L 208.974794 176.226031 
L 208.978768 175.682168 
L 208.99269 175.138306 
L 209.011498 174.594443 
L 209.030166 174.05058 
L 209.045623 173.506717 
L 209.057312 172.962855 
L 209.066375 172.418992 
L 209.074253 171.875129 
L 209.081587 171.331266 
L 209.087642 170.787403 
L 209.09007 170.243541 
L 209.085114 169.699678 
L 209.068861 169.155815 
L 209.039511 168.611952 
L 208.999382 168.06809 
L 208.954876 167.524227 
L 208.913978 166.980364 
L 208.882748 166.436501 
L 208.86292 165.892638 
L 208.851734 165.348776 
L 208.843728 164.804913 
L 208.83354 164.26105 
L 208.818673 163.717187 
L 208.801146 163.173325 
L 208.787074 162.629462 
L 208.784091 162.085599 
L 208.797818 161.541736 
L 208.829333 160.997873 
L 208.875008 160.454011 
L 208.928587 159.910148 
L 208.984086 159.366285 
L 209.037748 158.822422 
L 209.088036 158.27856 
L 209.133959 157.734697 
L 209.17327 157.190834 
L 209.202487 156.646971 
L 209.21983 156.103108 
L 209.230546 155.559246 
L 209.252869 155.015383 
L 209.322584 154.47152 
L 209.493879 153.927657 
L 209.833053 153.383795 
L 210.401523 152.839932 
L 211.229072 152.296069 
L 212.287786 151.752206 
L 213.483974 151.208343 
L 222.20239 151.208343 
L 222.20239 151.208343 
L 223.398577 151.752206 
L 224.457292 152.296069 
L 225.284841 152.839932 
L 225.85331 153.383795 
L 226.192485 153.927657 
L 226.36378 154.47152 
L 226.433495 155.015383 
L 226.455818 155.559246 
L 226.466534 156.103108 
L 226.483877 156.646971 
L 226.513094 157.190834 
L 226.552405 157.734697 
L 226.598328 158.27856 
L 226.648616 158.822422 
L 226.702277 159.366285 
L 226.757777 159.910148 
L 226.811356 160.454011 
L 226.85703 160.997873 
L 226.888546 161.541736 
L 226.902273 162.085599 
L 226.89929 162.629462 
L 226.885218 163.173325 
L 226.867691 163.717187 
L 226.852823 164.26105 
L 226.842636 164.804913 
L 226.83463 165.348776 
L 226.823444 165.892638 
L 226.803615 166.436501 
L 226.772386 166.980364 
L 226.731488 167.524227 
L 226.686981 168.06809 
L 226.646852 168.611952 
L 226.617503 169.155815 
L 226.601249 169.699678 
L 226.596293 170.243541 
L 226.598721 170.787403 
L 226.604777 171.331266 
L 226.61211 171.875129 
L 226.619989 172.418992 
L 226.629052 172.962855 
L 226.640741 173.506717 
L 226.656198 174.05058 
L 226.674866 174.594443 
L 226.693674 175.138306 
L 226.707596 175.682168 
L 226.71157 176.226031 
L 226.702874 176.769894 
L 226.682756 177.313757 
L 226.656352 177.85762 
L 226.630749 178.401482 
L 226.612077 178.945345 
L 226.603228 179.489208 
L 226.603346 180.033071 
L 226.608967 180.576933 
L 226.615589 181.120796 
L 226.618656 181.664659 
L 226.614077 182.208522 
L 226.599181 182.752385 
L 226.574371 183.296247 
L 226.544383 183.84011 
L 226.517562 184.383973 
L 226.502881 184.927836 
L 226.506361 185.471698 
L 226.529052 186.015561 
L 226.567251 186.559424 
L 226.61391 187.103287 
L 226.660088 187.64715 
L 226.696432 188.191012 
L 226.71532 188.734875 
L 226.713409 189.278738 
L 226.693187 189.822601 
L 226.662144 190.366463 
L 226.629732 190.910326 
L 226.603864 191.454189 
L 226.58895 191.998052 
L 226.586192 192.541914 
L 226.595178 193.085777 
L 226.615101 193.62964 
L 226.644649 194.173503 
L 226.680957 194.717366 
L 226.718971 195.261228 
L 226.75235 195.805091 
L 226.7757 196.348954 
L 226.786597 196.892817 
L 226.785728 197.436679 
L 226.775026 197.980542 
L 226.755499 198.524405 
L 226.726678 199.068268 
L 226.687782 199.612131 
L 226.638471 200.155993 
L 226.576596 200.699856 
L 226.49214 201.243719 
L 226.35955 201.787582 
L 226.133212 202.331444 
L 225.751936 202.875307 
L 225.156421 203.41917 
L 224.317263 203.963033 
L 223.261558 204.506896 
L 222.080648 205.050758 
z
" clip-path="url(#p9d2ffb4fe9)" style="fill: #348abd; fill-opacity: 0.3"/>
   </g>
   <g id="PolyCollection_6">
    <path d="M 254.584716 274.24104 
L 253.574374 274.24104 
L 247.972189 264.526802 
L 245.020455 254.812565 
L 246.430589 245.098327 
L 248.561603 235.38409 
L 250.239105 225.669853 
L 251.421131 215.955615 
L 252.275367 206.241378 
L 252.810809 196.527141 
L 253.175383 186.812903 
L 253.427512 177.098666 
L 253.625605 167.384428 
L 253.747774 157.670191 
L 253.833432 147.955954 
L 253.897901 138.241716 
L 253.951898 128.527479 
L 253.973916 118.813241 
L 253.995356 109.099004 
L 254.023015 99.384767 
L 254.032414 89.670529 
L 254.041095 79.956292 
L 254.046316 70.242055 
L 254.052654 60.527817 
L 254.062498 50.81358 
L 254.064059 41.099342 
L 254.066469 31.385105 
L 254.0686 21.670868 
L 254.070256 11.95663 
L 254.071427 2.242393 
L 254.070887 -7.471844 
L 254.076358 -17.186082 
L 254.075115 -26.900319 
L 254.076817 -36.614557 
L 254.076313 -46.328794 
L 254.07775 -56.043031 
L 254.077869 -65.757269 
L 254.078676 -75.471506 
L 254.078026 -85.185744 
L 254.077719 -94.899981 
L 254.078582 -104.614218 
L 254.078318 -114.328456 
L 254.079022 -124.042693 
L 254.078531 -133.75693 
L 254.079127 -143.471168 
L 254.078927 -153.185405 
L 254.078516 -162.899643 
L 254.07873 -172.61388 
L 254.079216 -182.328117 
L 254.079465 -192.042355 
L 254.079507 -201.756592 
L 254.078955 -211.470829 
L 254.079435 -221.185067 
L 254.079545 -230.899304 
L 254.079545 -240.613542 
L 254.079545 -250.327779 
L 254.079545 -260.042016 
L 254.079545 -269.756254 
L 254.079545 -279.470491 
L 254.079545 -289.184729 
L 254.079545 -298.898966 
L 254.079545 -308.613203 
L 254.079545 -318.327441 
L 254.079545 -328.041678 
L 254.079545 -337.755915 
L 254.079545 -347.470153 
L 254.079545 -357.18439 
L 254.079545 -366.898628 
L 254.079545 -376.612865 
L 254.079545 -386.327102 
L 254.079545 -396.04134 
L 254.079545 -405.755577 
L 254.079545 -415.469815 
L 254.079545 -425.184052 
L 254.079545 -434.898289 
L 254.079545 -444.612527 
L 254.079545 -454.326764 
L 254.079545 -464.041001 
L 254.079545 -473.755239 
L 254.079545 -483.469476 
L 254.079545 -493.183714 
L 254.079545 -502.897951 
L 254.079545 -512.612188 
L 254.079545 -522.326426 
L 254.079545 -532.040663 
L 254.079545 -541.7549 
L 254.079545 -551.469138 
L 254.079545 -561.183375 
L 254.079545 -570.897613 
L 254.079545 -580.61185 
L 254.079545 -590.326087 
L 254.079545 -600.040325 
L 254.079545 -609.754562 
L 254.079545 -619.4688 
L 254.079545 -629.183037 
L 254.079545 -638.897274 
L 254.079545 -648.611512 
L 254.079545 -658.325749 
L 254.079545 -668.039986 
L 254.079541 -677.754224 
L 254.079036 -687.468461 
L 254.080055 -687.468461 
L 254.080055 -687.468461 
L 254.07955 -677.754224 
L 254.079545 -668.039986 
L 254.079545 -658.325749 
L 254.079545 -648.611512 
L 254.079545 -638.897274 
L 254.079545 -629.183037 
L 254.079545 -619.4688 
L 254.079545 -609.754562 
L 254.079545 -600.040325 
L 254.079545 -590.326087 
L 254.079545 -580.61185 
L 254.079545 -570.897613 
L 254.079545 -561.183375 
L 254.079545 -551.469138 
L 254.079545 -541.7549 
L 254.079545 -532.040663 
L 254.079545 -522.326426 
L 254.079545 -512.612188 
L 254.079545 -502.897951 
L 254.079545 -493.183714 
L 254.079545 -483.469476 
L 254.079545 -473.755239 
L 254.079545 -464.041001 
L 254.079545 -454.326764 
L 254.079545 -444.612527 
L 254.079545 -434.898289 
L 254.079545 -425.184052 
L 254.079545 -415.469815 
L 254.079545 -405.755577 
L 254.079545 -396.04134 
L 254.079545 -386.327102 
L 254.079545 -376.612865 
L 254.079545 -366.898628 
L 254.079545 -357.18439 
L 254.079545 -347.470153 
L 254.079545 -337.755915 
L 254.079545 -328.041678 
L 254.079545 -318.327441 
L 254.079545 -308.613203 
L 254.079545 -298.898966 
L 254.079545 -289.184729 
L 254.079545 -279.470491 
L 254.079545 -269.756254 
L 254.079545 -260.042016 
L 254.079545 -250.327779 
L 254.079545 -240.613542 
L 254.079545 -230.899304 
L 254.079656 -221.185067 
L 254.080136 -211.470829 
L 254.079584 -201.756592 
L 254.079626 -192.042355 
L 254.079875 -182.328117 
L 254.080361 -172.61388 
L 254.080575 -162.899643 
L 254.080164 -153.185405 
L 254.079964 -143.471168 
L 254.080559 -133.75693 
L 254.080069 -124.042693 
L 254.080773 -114.328456 
L 254.080509 -104.614218 
L 254.081372 -94.899981 
L 254.081065 -85.185744 
L 254.080415 -75.471506 
L 254.081222 -65.757269 
L 254.081341 -56.043031 
L 254.082778 -46.328794 
L 254.082274 -36.614557 
L 254.083976 -26.900319 
L 254.082733 -17.186082 
L 254.088204 -7.471844 
L 254.087664 2.242393 
L 254.088835 11.95663 
L 254.090491 21.670868 
L 254.092622 31.385105 
L 254.095032 41.099342 
L 254.096593 50.81358 
L 254.106437 60.527817 
L 254.112775 70.242055 
L 254.117996 79.956292 
L 254.126677 89.670529 
L 254.136075 99.384767 
L 254.163735 109.099004 
L 254.185175 118.813241 
L 254.207193 128.527479 
L 254.26119 138.241716 
L 254.325659 147.955954 
L 254.411317 157.670191 
L 254.533485 167.384428 
L 254.731579 177.098666 
L 254.983708 186.812903 
L 255.348282 196.527141 
L 255.883724 206.241378 
L 256.73796 215.955615 
L 257.919986 225.669853 
L 259.597488 235.38409 
L 261.728502 245.098327 
L 263.138636 254.812565 
L 260.186902 264.526802 
L 254.584716 274.24104 
z
" clip-path="url(#p9d2ffb4fe9)" style="fill: #348abd; fill-opacity: 0.3"/>
   </g>
   <g id="PolyCollection_7">
    <path d="M 291.040649 275.874177 
L 289.591169 275.874177 
L 288.850948 273.723672 
L 287.939929 271.573167 
L 287.000419 269.422662 
L 286.119208 267.272156 
L 285.335463 265.121651 
L 284.653241 262.971146 
L 284.054453 260.820641 
L 283.528055 258.670135 
L 283.063902 256.51963 
L 282.646882 254.369125 
L 282.279932 252.218619 
L 281.987381 250.068114 
L 281.773044 247.917609 
L 281.606195 245.767104 
L 281.453999 243.616598 
L 281.322481 241.466093 
L 281.256818 239.315588 
L 281.270692 237.165083 
L 281.320266 235.014577 
L 281.372083 232.864072 
L 281.442625 230.713567 
L 281.568203 228.563061 
L 281.775305 226.412556 
L 282.051063 224.262051 
L 282.335104 222.111546 
L 282.589787 219.96104 
L 282.842843 217.810535 
L 283.132001 215.66003 
L 283.437269 213.509525 
L 283.709724 211.359019 
L 283.965736 209.208514 
L 284.260082 207.058009 
L 284.587322 204.907504 
L 284.901557 202.756998 
L 285.186913 200.606493 
L 285.460519 198.455988 
L 285.746688 196.305482 
L 286.047377 194.154977 
L 286.340835 192.004472 
L 286.6152 189.853967 
L 286.872928 187.703461 
L 287.119425 185.552956 
L 287.356964 183.402451 
L 287.587336 181.251946 
L 287.815369 179.10144 
L 288.030792 176.950935 
L 288.216797 174.80043 
L 288.382188 172.649924 
L 288.551194 170.499419 
L 288.71949 168.348914 
L 288.860429 166.198409 
L 288.969177 164.047903 
L 289.065404 161.897398 
L 289.16647 159.746893 
L 289.272431 157.596388 
L 289.37721 155.445882 
L 289.479853 153.295377 
L 289.576001 151.144872 
L 289.657666 148.994366 
L 289.726851 146.843861 
L 289.794658 144.693356 
L 289.861976 142.542851 
L 289.917605 140.392345 
L 289.958638 138.24184 
L 289.993465 136.091335 
L 290.029033 133.94083 
L 290.065452 131.790324 
L 290.097448 129.639819 
L 290.119704 127.489314 
L 290.136529 125.338808 
L 290.156732 123.188303 
L 290.179271 121.037798 
L 290.198447 118.887293 
L 290.215597 116.736787 
L 290.233979 114.586282 
L 290.25103 112.435777 
L 290.263423 110.285272 
L 290.271325 108.134766 
L 290.276868 105.984261 
L 290.281643 103.833756 
L 290.285752 101.68325 
L 290.289688 99.532745 
L 290.293705 97.38224 
L 290.296724 95.231735 
L 290.298234 93.081229 
L 290.29941 90.930724 
L 290.301521 88.780219 
L 290.30416 86.629714 
L 290.306176 84.479208 
L 290.307333 82.328703 
L 290.307964 80.178198 
L 290.308307 78.027693 
L 290.308782 75.877187 
L 290.309778 73.726682 
L 290.311064 71.576177 
L 290.312242 69.425671 
L 290.313203 67.275166 
L 290.313929 65.124661 
L 290.314512 62.974156 
L 290.317306 62.974156 
L 290.317306 62.974156 
L 290.31789 65.124661 
L 290.318615 67.275166 
L 290.319576 69.425671 
L 290.320754 71.576177 
L 290.32204 73.726682 
L 290.323037 75.877187 
L 290.323511 78.027693 
L 290.323855 80.178198 
L 290.324486 82.328703 
L 290.325642 84.479208 
L 290.327658 86.629714 
L 290.330297 88.780219 
L 290.332409 90.930724 
L 290.333584 93.081229 
L 290.335094 95.231735 
L 290.338113 97.38224 
L 290.34213 99.532745 
L 290.346067 101.68325 
L 290.350175 103.833756 
L 290.35495 105.984261 
L 290.360493 108.134766 
L 290.368395 110.285272 
L 290.380788 112.435777 
L 290.397839 114.586282 
L 290.416221 116.736787 
L 290.433372 118.887293 
L 290.452547 121.037798 
L 290.475086 123.188303 
L 290.49529 125.338808 
L 290.512115 127.489314 
L 290.53437 129.639819 
L 290.566366 131.790324 
L 290.602785 133.94083 
L 290.638353 136.091335 
L 290.67318 138.24184 
L 290.714213 140.392345 
L 290.769842 142.542851 
L 290.83716 144.693356 
L 290.904967 146.843861 
L 290.974152 148.994366 
L 291.055817 151.144872 
L 291.151965 153.295377 
L 291.254608 155.445882 
L 291.359387 157.596388 
L 291.465348 159.746893 
L 291.566414 161.897398 
L 291.662641 164.047903 
L 291.771389 166.198409 
L 291.912328 168.348914 
L 292.080624 170.499419 
L 292.24963 172.649924 
L 292.415021 174.80043 
L 292.601026 176.950935 
L 292.81645 179.10144 
L 293.044482 181.251946 
L 293.274854 183.402451 
L 293.512393 185.552956 
L 293.75889 187.703461 
L 294.016619 189.853967 
L 294.290984 192.004472 
L 294.584441 194.154977 
L 294.88513 196.305482 
L 295.1713 198.455988 
L 295.444906 200.606493 
L 295.730261 202.756998 
L 296.044496 204.907504 
L 296.371737 207.058009 
L 296.666082 209.208514 
L 296.922094 211.359019 
L 297.19455 213.509525 
L 297.499817 215.66003 
L 297.788976 217.810535 
L 298.042032 219.96104 
L 298.296715 222.111546 
L 298.580755 224.262051 
L 298.856514 226.412556 
L 299.063615 228.563061 
L 299.189193 230.713567 
L 299.259735 232.864072 
L 299.311552 235.014577 
L 299.361127 237.165083 
L 299.375 239.315588 
L 299.309338 241.466093 
L 299.177819 243.616598 
L 299.025623 245.767104 
L 298.858774 247.917609 
L 298.644437 250.068114 
L 298.351886 252.218619 
L 297.984936 254.369125 
L 297.567916 256.51963 
L 297.103763 258.670135 
L 296.577365 260.820641 
L 295.978578 262.971146 
L 295.296356 265.121651 
L 294.51261 267.272156 
L 293.631399 269.422662 
L 292.691889 271.573167 
L 291.78087 273.723672 
L 291.040649 275.874177 
z
" clip-path="url(#p9d2ffb4fe9)" style="fill: #348abd; fill-opacity: 0.3"/>
   </g>
   <g id="PolyCollection_8">
    <path d="M 326.982217 272.141043 
L 326.122329 272.141043 
L 321.84791 249.178736 
L 317.711356 226.216429 
L 317.493182 203.254122 
L 318.979807 180.291815 
L 320.725643 157.329508 
L 322.155963 134.367201 
L 323.336077 111.404894 
L 324.114419 88.442587 
L 324.784671 65.48028 
L 325.249847 42.517973 
L 325.551441 19.555666 
L 325.775832 -3.406641 
L 325.96776 -26.368948 
L 326.111942 -49.331255 
L 326.192851 -72.293562 
L 326.274976 -95.255869 
L 326.337539 -118.218176 
L 326.386302 -141.180483 
L 326.430345 -164.142789 
L 326.455998 -187.105096 
L 326.466908 -210.067403 
L 326.473855 -233.02971 
L 326.485518 -255.992017 
L 326.507633 -278.954324 
L 326.510054 -301.916631 
L 326.516221 -324.878938 
L 326.528509 -347.841245 
L 326.532536 -370.803552 
L 326.537166 -393.765859 
L 326.534798 -416.728166 
L 326.539616 -439.690473 
L 326.54355 -462.65278 
L 326.539555 -485.615087 
L 326.545664 -508.577394 
L 326.549007 -531.539701 
L 326.547237 -554.502008 
L 326.547032 -577.464315 
L 326.546249 -600.426622 
L 326.546679 -623.388929 
L 326.547902 -646.351236 
L 326.549745 -669.313543 
L 326.550538 -692.27585 
L 326.549351 -715.238157 
L 326.550186 -738.200464 
L 326.550483 -761.162771 
L 326.551235 -784.125078 
L 326.550653 -807.087384 
L 326.551271 -830.049691 
L 326.551342 -853.011998 
L 326.549275 -875.974305 
L 326.550972 -898.936612 
L 326.551611 -921.898919 
L 326.551919 -944.861226 
L 326.550829 -967.823533 
L 326.551837 -990.78584 
L 326.55221 -1013.748147 
L 326.551777 -1036.710454 
L 326.552171 -1059.672761 
L 326.551817 -1082.635068 
L 326.551472 -1105.597375 
L 326.551564 -1128.559682 
L 326.5511 -1151.521989 
L 326.551705 -1174.484296 
L 326.552249 -1197.446603 
L 326.551751 -1220.40891 
L 326.552229 -1243.371217 
L 326.551824 -1266.333524 
L 326.552182 -1289.295831 
L 326.552273 -1312.258138 
L 326.552273 -1335.220445 
L 326.552273 -1358.182752 
L 326.552273 -1381.145059 
L 326.552273 -1404.107366 
L 326.552273 -1427.069673 
L 326.552273 -1450.031979 
L 326.552273 -1472.994286 
L 326.552273 -1495.956593 
L 326.552263 -1518.9189 
L 326.551782 -1541.881207 
L 326.55221 -1564.843514 
L 326.552266 -1587.805821 
L 326.551807 -1610.768128 
L 326.552193 -1633.730435 
L 326.552273 -1656.692742 
L 326.552273 -1679.655049 
L 326.552273 -1702.617356 
L 326.552273 -1725.579663 
L 326.552273 -1748.54197 
L 326.552273 -1771.504277 
L 326.552273 -1794.466584 
L 326.552273 -1817.428891 
L 326.552273 -1840.391198 
L 326.552273 -1863.353505 
L 326.552273 -1886.315812 
L 326.552273 -1909.278119 
L 326.552273 -1932.240426 
L 326.552273 -1955.202733 
L 326.552246 -1978.16504 
L 326.551746 -2001.127347 
L 326.5528 -2001.127347 
L 326.5528 -2001.127347 
L 326.552299 -1978.16504 
L 326.552273 -1955.202733 
L 326.552273 -1932.240426 
L 326.552273 -1909.278119 
L 326.552273 -1886.315812 
L 326.552273 -1863.353505 
L 326.552273 -1840.391198 
L 326.552273 -1817.428891 
L 326.552273 -1794.466584 
L 326.552273 -1771.504277 
L 326.552273 -1748.54197 
L 326.552273 -1725.579663 
L 326.552273 -1702.617356 
L 326.552273 -1679.655049 
L 326.552273 -1656.692742 
L 326.552353 -1633.730435 
L 326.552738 -1610.768128 
L 326.55228 -1587.805821 
L 326.552336 -1564.843514 
L 326.552763 -1541.881207 
L 326.552283 -1518.9189 
L 326.552273 -1495.956593 
L 326.552273 -1472.994286 
L 326.552273 -1450.031979 
L 326.552273 -1427.069673 
L 326.552273 -1404.107366 
L 326.552273 -1381.145059 
L 326.552273 -1358.182752 
L 326.552273 -1335.220445 
L 326.552273 -1312.258138 
L 326.552364 -1289.295831 
L 326.552722 -1266.333524 
L 326.552316 -1243.371217 
L 326.552794 -1220.40891 
L 326.552296 -1197.446603 
L 326.552841 -1174.484296 
L 326.553446 -1151.521989 
L 326.552981 -1128.559682 
L 326.553073 -1105.597375 
L 326.552728 -1082.635068 
L 326.552374 -1059.672761 
L 326.552768 -1036.710454 
L 326.552335 -1013.748147 
L 326.552708 -990.78584 
L 326.553716 -967.823533 
L 326.552627 -944.861226 
L 326.552935 -921.898919 
L 326.553573 -898.936612 
L 326.555271 -875.974305 
L 326.553204 -853.011998 
L 326.553274 -830.049691 
L 326.553892 -807.087384 
L 326.553311 -784.125078 
L 326.554062 -761.162771 
L 326.554359 -738.200464 
L 326.555194 -715.238157 
L 326.554007 -692.27585 
L 326.554801 -669.313543 
L 326.556643 -646.351236 
L 326.557867 -623.388929 
L 326.558296 -600.426622 
L 326.557513 -577.464315 
L 326.557309 -554.502008 
L 326.555538 -531.539701 
L 326.558882 -508.577394 
L 326.564991 -485.615087 
L 326.560996 -462.65278 
L 326.56493 -439.690473 
L 326.569747 -416.728166 
L 326.56738 -393.765859 
L 326.57201 -370.803552 
L 326.576037 -347.841245 
L 326.588325 -324.878938 
L 326.594492 -301.916631 
L 326.596912 -278.954324 
L 326.619028 -255.992017 
L 326.630691 -233.02971 
L 326.637638 -210.067403 
L 326.648548 -187.105096 
L 326.674201 -164.142789 
L 326.718244 -141.180483 
L 326.767006 -118.218176 
L 326.82957 -95.255869 
L 326.911694 -72.293562 
L 326.992604 -49.331255 
L 327.136785 -26.368948 
L 327.328713 -3.406641 
L 327.553105 19.555666 
L 327.854699 42.517973 
L 328.319874 65.48028 
L 328.990127 88.442587 
L 329.768468 111.404894 
L 330.948582 134.367201 
L 332.378903 157.329508 
L 334.124738 180.291815 
L 335.611364 203.254122 
L 335.393189 226.216429 
L 331.256636 249.178736 
L 326.982217 272.141043 
z
" clip-path="url(#p9d2ffb4fe9)" style="fill: #348abd; fill-opacity: 0.3"/>
   </g>
   <g id="PathCollection_1">
    <defs>
     <path id="me28c722832" d="M 0 3 
C 0.795609 3 1.55874 2.683901 2.12132 2.12132 
C 2.683901 1.55874 3 0.795609 3 0 
C 3 -0.795609 2.683901 -1.55874 2.12132 -2.12132 
C 1.55874 -2.683901 0.795609 -3 0 -3 
C -0.795609 -3 -1.55874 -2.683901 -2.12132 -2.12132 
C -2.683901 -1.55874 -3 -0.795609 -3 0 
C -3 0.795609 -2.683901 1.55874 -2.12132 2.12132 
C -1.55874 2.683901 -0.795609 3 0 3 
z
" style="stroke: #0000ff; stroke-width: 0.5"/>
    </defs>
    <g clip-path="url(#p9d2ffb4fe9)">
     <use xlink:href="#me28c722832" x="72.897727" y="244.812906" style="fill: #0000ff; stroke: #0000ff; stroke-width: 0.5"/>
    </g>
   </g>
   <g id="PathCollection_2">
    <defs>
     <path id="m07b02a2456" d="M 0 -3 
L -3 3 
L 3 3 
z
" style="stroke: #ff0000; stroke-width: 0.5"/>
    </defs>
    <g clip-path="url(#p9d2ffb4fe9)">
     <use xlink:href="#m07b02a2456" x="72.897727" y="90.676405" style="fill: #ff0000; stroke: #ff0000; stroke-width: 0.5"/>
    </g>
   </g>
   <g id="PathCollection_3">
    <g clip-path="url(#p9d2ffb4fe9)">
     <use xlink:href="#me28c722832" x="109.134091" y="246.372992" style="fill: #0000ff; stroke: #0000ff; stroke-width: 0.5"/>
    </g>
   </g>
   <g id="PathCollection_4">
    <g clip-path="url(#p9d2ffb4fe9)">
     <use xlink:href="#m07b02a2456" x="109.134091" y="84.748078" style="fill: #ff0000; stroke: #ff0000; stroke-width: 0.5"/>
    </g>
   </g>
   <g id="PathCollection_5">
    <g clip-path="url(#p9d2ffb4fe9)">
     <use xlink:href="#me28c722832" x="145.370455" y="255.421491" style="fill: #0000ff; stroke: #0000ff; stroke-width: 0.5"/>
    </g>
   </g>
   <g id="PathCollection_6">
    <g clip-path="url(#p9d2ffb4fe9)">
     <use xlink:href="#m07b02a2456" x="145.370455" y="147.15152" style="fill: #ff0000; stroke: #ff0000; stroke-width: 0.5"/>
    </g>
   </g>
   <g id="PathCollection_7">
    <g clip-path="url(#p9d2ffb4fe9)">
     <use xlink:href="#me28c722832" x="181.606818" y="236.700459" style="fill: #0000ff; stroke: #0000ff; stroke-width: 0.5"/>
    </g>
   </g>
   <g id="PathCollection_8">
    <g clip-path="url(#p9d2ffb4fe9)">
     <use xlink:href="#m07b02a2456" x="181.606818" y="136.230918" style="fill: #ff0000; stroke: #ff0000; stroke-width: 0.5"/>
    </g>
   </g>
   <g id="PathCollection_9">
    <g clip-path="url(#p9d2ffb4fe9)">
     <use xlink:href="#me28c722832" x="217.843182" y="203.938652" style="fill: #0000ff; stroke: #0000ff; stroke-width: 0.5"/>
    </g>
   </g>
   <g id="PathCollection_10">
    <g clip-path="url(#p9d2ffb4fe9)">
     <use xlink:href="#m07b02a2456" x="217.843182" y="146.215468" style="fill: #ff0000; stroke: #ff0000; stroke-width: 0.5"/>
    </g>
   </g>
   <g id="PathCollection_11">
    <g clip-path="url(#p9d2ffb4fe9)">
     <use xlink:href="#me28c722832" x="254.079545" y="255.733508" style="fill: #0000ff; stroke: #0000ff; stroke-width: 0.5"/>
    </g>
   </g>
   <g id="PathCollection_12">
    <g clip-path="url(#p9d2ffb4fe9)">
     <use xlink:href="#m07b02a2456" x="254.079545" y="203.626634" style="fill: #ff0000; stroke: #ff0000; stroke-width: 0.5"/>
    </g>
   </g>
   <g id="PathCollection_13">
    <g clip-path="url(#p9d2ffb4fe9)">
     <use xlink:href="#me28c722832" x="290.315909" y="266.342093" style="fill: #0000ff; stroke: #0000ff; stroke-width: 0.5"/>
    </g>
   </g>
   <g id="PathCollection_14">
    <g clip-path="url(#p9d2ffb4fe9)">
     <use xlink:href="#m07b02a2456" x="290.315909" y="179.289292" style="fill: #ff0000; stroke: #ff0000; stroke-width: 0.5"/>
    </g>
   </g>
   <g id="PathCollection_15">
    <g clip-path="url(#p9d2ffb4fe9)">
     <use xlink:href="#me28c722832" x="326.552273" y="207.370841" style="fill: #0000ff; stroke: #0000ff; stroke-width: 0.5"/>
    </g>
   </g>
   <g id="PathCollection_16">
    <g clip-path="url(#p9d2ffb4fe9)">
     <use xlink:href="#m07b02a2456" x="326.552273" y="107.525334" style="fill: #ff0000; stroke: #ff0000; stroke-width: 0.5"/>
    </g>
   </g>
   <g id="PathCollection_17">
    <g clip-path="url(#p9d2ffb4fe9)">
     <use xlink:href="#me28c722832" x="326.552273" y="207.370841" style="fill: #0000ff; stroke: #0000ff; stroke-width: 0.5"/>
    </g>
   </g>
   <g id="PathCollection_18">
    <g clip-path="url(#p9d2ffb4fe9)">
     <use xlink:href="#m07b02a2456" x="326.552273" y="107.525334" style="fill: #ff0000; stroke: #ff0000; stroke-width: 0.5"/>
    </g>
   </g>
   <g id="matplotlib.axis_1">
    <g id="xtick_1">
     <g id="line2d_1">
      <path d="M 72.897727 276.014627 
L 72.897727 10.8 
" clip-path="url(#p9d2ffb4fe9)" style="fill: none; stroke-dasharray: 1.85,0.8; stroke-dashoffset: 0; stroke: #b2b2b2; stroke-width: 0.5"/>
     </g>
     <g id="line2d_2">
      <defs>
       <path id="m90387d3f4e" d="M 0 0 
L 0 -3.5 
" style="stroke: #000000; stroke-width: 0.8"/>
      </defs>
      <g>
       <use xlink:href="#m90387d3f4e" x="72.897727" y="276.014627" style="stroke: #000000; stroke-width: 0.8"/>
      </g>
     </g>
     <g id="text_1">
      <!-- Refrigerator -->
      <g transform="translate(35.878478 327.27969) rotate(-45) scale(0.1 -0.1)">
       <defs>
        <path id="DejaVuSans-52" d="M 2841 2188 
Q 3044 2119 3236 1894 
Q 3428 1669 3622 1275 
L 4263 0 
L 3584 0 
L 2988 1197 
Q 2756 1666 2539 1819 
Q 2322 1972 1947 1972 
L 1259 1972 
L 1259 0 
L 628 0 
L 628 4666 
L 2053 4666 
Q 2853 4666 3247 4331 
Q 3641 3997 3641 3322 
Q 3641 2881 3436 2590 
Q 3231 2300 2841 2188 
z
M 1259 4147 
L 1259 2491 
L 2053 2491 
Q 2509 2491 2742 2702 
Q 2975 2913 2975 3322 
Q 2975 3731 2742 3939 
Q 2509 4147 2053 4147 
L 1259 4147 
z
" transform="scale(0.015625)"/>
        <path id="DejaVuSans-65" d="M 3597 1894 
L 3597 1613 
L 953 1613 
Q 991 1019 1311 708 
Q 1631 397 2203 397 
Q 2534 397 2845 478 
Q 3156 559 3463 722 
L 3463 178 
Q 3153 47 2828 -22 
Q 2503 -91 2169 -91 
Q 1331 -91 842 396 
Q 353 884 353 1716 
Q 353 2575 817 3079 
Q 1281 3584 2069 3584 
Q 2775 3584 3186 3129 
Q 3597 2675 3597 1894 
z
M 3022 2063 
Q 3016 2534 2758 2815 
Q 2500 3097 2075 3097 
Q 1594 3097 1305 2825 
Q 1016 2553 972 2059 
L 3022 2063 
z
" transform="scale(0.015625)"/>
        <path id="DejaVuSans-66" d="M 2375 4863 
L 2375 4384 
L 1825 4384 
Q 1516 4384 1395 4259 
Q 1275 4134 1275 3809 
L 1275 3500 
L 2222 3500 
L 2222 3053 
L 1275 3053 
L 1275 0 
L 697 0 
L 697 3053 
L 147 3053 
L 147 3500 
L 697 3500 
L 697 3744 
Q 697 4328 969 4595 
Q 1241 4863 1831 4863 
L 2375 4863 
z
" transform="scale(0.015625)"/>
        <path id="DejaVuSans-72" d="M 2631 2963 
Q 2534 3019 2420 3045 
Q 2306 3072 2169 3072 
Q 1681 3072 1420 2755 
Q 1159 2438 1159 1844 
L 1159 0 
L 581 0 
L 581 3500 
L 1159 3500 
L 1159 2956 
Q 1341 3275 1631 3429 
Q 1922 3584 2338 3584 
Q 2397 3584 2469 3576 
Q 2541 3569 2628 3553 
L 2631 2963 
z
" transform="scale(0.015625)"/>
        <path id="DejaVuSans-69" d="M 603 3500 
L 1178 3500 
L 1178 0 
L 603 0 
L 603 3500 
z
M 603 4863 
L 1178 4863 
L 1178 4134 
L 603 4134 
L 603 4863 
z
" transform="scale(0.015625)"/>
        <path id="DejaVuSans-67" d="M 2906 1791 
Q 2906 2416 2648 2759 
Q 2391 3103 1925 3103 
Q 1463 3103 1205 2759 
Q 947 2416 947 1791 
Q 947 1169 1205 825 
Q 1463 481 1925 481 
Q 2391 481 2648 825 
Q 2906 1169 2906 1791 
z
M 3481 434 
Q 3481 -459 3084 -895 
Q 2688 -1331 1869 -1331 
Q 1566 -1331 1297 -1286 
Q 1028 -1241 775 -1147 
L 775 -588 
Q 1028 -725 1275 -790 
Q 1522 -856 1778 -856 
Q 2344 -856 2625 -561 
Q 2906 -266 2906 331 
L 2906 616 
Q 2728 306 2450 153 
Q 2172 0 1784 0 
Q 1141 0 747 490 
Q 353 981 353 1791 
Q 353 2603 747 3093 
Q 1141 3584 1784 3584 
Q 2172 3584 2450 3431 
Q 2728 3278 2906 2969 
L 2906 3500 
L 3481 3500 
L 3481 434 
z
" transform="scale(0.015625)"/>
        <path id="DejaVuSans-61" d="M 2194 1759 
Q 1497 1759 1228 1600 
Q 959 1441 959 1056 
Q 959 750 1161 570 
Q 1363 391 1709 391 
Q 2188 391 2477 730 
Q 2766 1069 2766 1631 
L 2766 1759 
L 2194 1759 
z
M 3341 1997 
L 3341 0 
L 2766 0 
L 2766 531 
Q 2569 213 2275 61 
Q 1981 -91 1556 -91 
Q 1019 -91 701 211 
Q 384 513 384 1019 
Q 384 1609 779 1909 
Q 1175 2209 1959 2209 
L 2766 2209 
L 2766 2266 
Q 2766 2663 2505 2880 
Q 2244 3097 1772 3097 
Q 1472 3097 1187 3025 
Q 903 2953 641 2809 
L 641 3341 
Q 956 3463 1253 3523 
Q 1550 3584 1831 3584 
Q 2591 3584 2966 3190 
Q 3341 2797 3341 1997 
z
" transform="scale(0.015625)"/>
        <path id="DejaVuSans-74" d="M 1172 4494 
L 1172 3500 
L 2356 3500 
L 2356 3053 
L 1172 3053 
L 1172 1153 
Q 1172 725 1289 603 
Q 1406 481 1766 481 
L 2356 481 
L 2356 0 
L 1766 0 
Q 1100 0 847 248 
Q 594 497 594 1153 
L 594 3053 
L 172 3053 
L 172 3500 
L 594 3500 
L 594 4494 
L 1172 4494 
z
" transform="scale(0.015625)"/>
        <path id="DejaVuSans-6f" d="M 1959 3097 
Q 1497 3097 1228 2736 
Q 959 2375 959 1747 
Q 959 1119 1226 758 
Q 1494 397 1959 397 
Q 2419 397 2687 759 
Q 2956 1122 2956 1747 
Q 2956 2369 2687 2733 
Q 2419 3097 1959 3097 
z
M 1959 3584 
Q 2709 3584 3137 3096 
Q 3566 2609 3566 1747 
Q 3566 888 3137 398 
Q 2709 -91 1959 -91 
Q 1206 -91 779 398 
Q 353 888 353 1747 
Q 353 2609 779 3096 
Q 1206 3584 1959 3584 
z
" transform="scale(0.015625)"/>
       </defs>
       <use xlink:href="#DejaVuSans-52"/>
       <use xlink:href="#DejaVuSans-65" x="64.982422"/>
       <use xlink:href="#DejaVuSans-66" x="126.505859"/>
       <use xlink:href="#DejaVuSans-72" x="161.710938"/>
       <use xlink:href="#DejaVuSans-69" x="202.824219"/>
       <use xlink:href="#DejaVuSans-67" x="230.607422"/>
       <use xlink:href="#DejaVuSans-65" x="294.083984"/>
       <use xlink:href="#DejaVuSans-72" x="355.607422"/>
       <use xlink:href="#DejaVuSans-61" x="396.720703"/>
       <use xlink:href="#DejaVuSans-74" x="458"/>
       <use xlink:href="#DejaVuSans-6f" x="497.208984"/>
       <use xlink:href="#DejaVuSans-72" x="558.390625"/>
      </g>
     </g>
    </g>
    <g id="xtick_2">
     <g id="line2d_3">
      <path d="M 109.134091 276.014627 
L 109.134091 10.8 
" clip-path="url(#p9d2ffb4fe9)" style="fill: none; stroke-dasharray: 1.85,0.8; stroke-dashoffset: 0; stroke: #b2b2b2; stroke-width: 0.5"/>
     </g>
     <g id="line2d_4">
      <g>
       <use xlink:href="#m90387d3f4e" x="109.134091" y="276.014627" style="stroke: #000000; stroke-width: 0.8"/>
      </g>
     </g>
     <g id="text_2">
      <!-- Freezer -->
      <g transform="translate(88.534082 310.860449) rotate(-45) scale(0.1 -0.1)">
       <defs>
        <path id="DejaVuSans-46" d="M 628 4666 
L 3309 4666 
L 3309 4134 
L 1259 4134 
L 1259 2759 
L 3109 2759 
L 3109 2228 
L 1259 2228 
L 1259 0 
L 628 0 
L 628 4666 
z
" transform="scale(0.015625)"/>
        <path id="DejaVuSans-7a" d="M 353 3500 
L 3084 3500 
L 3084 2975 
L 922 459 
L 3084 459 
L 3084 0 
L 275 0 
L 275 525 
L 2438 3041 
L 353 3041 
L 353 3500 
z
" transform="scale(0.015625)"/>
       </defs>
       <use xlink:href="#DejaVuSans-46"/>
       <use xlink:href="#DejaVuSans-72" x="50.269531"/>
       <use xlink:href="#DejaVuSans-65" x="89.132812"/>
       <use xlink:href="#DejaVuSans-65" x="150.65625"/>
       <use xlink:href="#DejaVuSans-7a" x="212.179688"/>
       <use xlink:href="#DejaVuSans-65" x="264.669922"/>
       <use xlink:href="#DejaVuSans-72" x="326.193359"/>
      </g>
     </g>
    </g>
    <g id="xtick_3">
     <g id="line2d_5">
      <path d="M 145.370455 276.014627 
L 145.370455 10.8 
" clip-path="url(#p9d2ffb4fe9)" style="fill: none; stroke-dasharray: 1.85,0.8; stroke-dashoffset: 0; stroke: #b2b2b2; stroke-width: 0.5"/>
     </g>
     <g id="line2d_6">
      <g>
       <use xlink:href="#m90387d3f4e" x="145.370455" y="276.014627" style="stroke: #000000; stroke-width: 0.8"/>
      </g>
     </g>
     <g id="text_3">
      <!-- Washing machine -->
      <g transform="translate(88.135685 347.49521) rotate(-45) scale(0.1 -0.1)">
       <defs>
        <path id="DejaVuSans-57" d="M 213 4666 
L 850 4666 
L 1831 722 
L 2809 4666 
L 3519 4666 
L 4500 722 
L 5478 4666 
L 6119 4666 
L 4947 0 
L 4153 0 
L 3169 4050 
L 2175 0 
L 1381 0 
L 213 4666 
z
" transform="scale(0.015625)"/>
        <path id="DejaVuSans-73" d="M 2834 3397 
L 2834 2853 
Q 2591 2978 2328 3040 
Q 2066 3103 1784 3103 
Q 1356 3103 1142 2972 
Q 928 2841 928 2578 
Q 928 2378 1081 2264 
Q 1234 2150 1697 2047 
L 1894 2003 
Q 2506 1872 2764 1633 
Q 3022 1394 3022 966 
Q 3022 478 2636 193 
Q 2250 -91 1575 -91 
Q 1294 -91 989 -36 
Q 684 19 347 128 
L 347 722 
Q 666 556 975 473 
Q 1284 391 1588 391 
Q 1994 391 2212 530 
Q 2431 669 2431 922 
Q 2431 1156 2273 1281 
Q 2116 1406 1581 1522 
L 1381 1569 
Q 847 1681 609 1914 
Q 372 2147 372 2553 
Q 372 3047 722 3315 
Q 1072 3584 1716 3584 
Q 2034 3584 2315 3537 
Q 2597 3491 2834 3397 
z
" transform="scale(0.015625)"/>
        <path id="DejaVuSans-68" d="M 3513 2113 
L 3513 0 
L 2938 0 
L 2938 2094 
Q 2938 2591 2744 2837 
Q 2550 3084 2163 3084 
Q 1697 3084 1428 2787 
Q 1159 2491 1159 1978 
L 1159 0 
L 581 0 
L 581 4863 
L 1159 4863 
L 1159 2956 
Q 1366 3272 1645 3428 
Q 1925 3584 2291 3584 
Q 2894 3584 3203 3211 
Q 3513 2838 3513 2113 
z
" transform="scale(0.015625)"/>
        <path id="DejaVuSans-6e" d="M 3513 2113 
L 3513 0 
L 2938 0 
L 2938 2094 
Q 2938 2591 2744 2837 
Q 2550 3084 2163 3084 
Q 1697 3084 1428 2787 
Q 1159 2491 1159 1978 
L 1159 0 
L 581 0 
L 581 3500 
L 1159 3500 
L 1159 2956 
Q 1366 3272 1645 3428 
Q 1925 3584 2291 3584 
Q 2894 3584 3203 3211 
Q 3513 2838 3513 2113 
z
" transform="scale(0.015625)"/>
        <path id="DejaVuSans-20" transform="scale(0.015625)"/>
        <path id="DejaVuSans-6d" d="M 3328 2828 
Q 3544 3216 3844 3400 
Q 4144 3584 4550 3584 
Q 5097 3584 5394 3201 
Q 5691 2819 5691 2113 
L 5691 0 
L 5113 0 
L 5113 2094 
Q 5113 2597 4934 2840 
Q 4756 3084 4391 3084 
Q 3944 3084 3684 2787 
Q 3425 2491 3425 1978 
L 3425 0 
L 2847 0 
L 2847 2094 
Q 2847 2600 2669 2842 
Q 2491 3084 2119 3084 
Q 1678 3084 1418 2786 
Q 1159 2488 1159 1978 
L 1159 0 
L 581 0 
L 581 3500 
L 1159 3500 
L 1159 2956 
Q 1356 3278 1631 3431 
Q 1906 3584 2284 3584 
Q 2666 3584 2933 3390 
Q 3200 3197 3328 2828 
z
" transform="scale(0.015625)"/>
        <path id="DejaVuSans-63" d="M 3122 3366 
L 3122 2828 
Q 2878 2963 2633 3030 
Q 2388 3097 2138 3097 
Q 1578 3097 1268 2742 
Q 959 2388 959 1747 
Q 959 1106 1268 751 
Q 1578 397 2138 397 
Q 2388 397 2633 464 
Q 2878 531 3122 666 
L 3122 134 
Q 2881 22 2623 -34 
Q 2366 -91 2075 -91 
Q 1284 -91 818 406 
Q 353 903 353 1747 
Q 353 2603 823 3093 
Q 1294 3584 2113 3584 
Q 2378 3584 2631 3529 
Q 2884 3475 3122 3366 
z
" transform="scale(0.015625)"/>
       </defs>
       <use xlink:href="#DejaVuSans-57"/>
       <use xlink:href="#DejaVuSans-61" x="92.501953"/>
       <use xlink:href="#DejaVuSans-73" x="153.78125"/>
       <use xlink:href="#DejaVuSans-68" x="205.880859"/>
       <use xlink:href="#DejaVuSans-69" x="269.259766"/>
       <use xlink:href="#DejaVuSans-6e" x="297.042969"/>
       <use xlink:href="#DejaVuSans-67" x="360.421875"/>
       <use xlink:href="#DejaVuSans-20" x="423.898438"/>
       <use xlink:href="#DejaVuSans-6d" x="455.685547"/>
       <use xlink:href="#DejaVuSans-61" x="553.097656"/>
       <use xlink:href="#DejaVuSans-63" x="614.376953"/>
       <use xlink:href="#DejaVuSans-68" x="669.357422"/>
       <use xlink:href="#DejaVuSans-69" x="732.736328"/>
       <use xlink:href="#DejaVuSans-6e" x="760.519531"/>
       <use xlink:href="#DejaVuSans-65" x="823.898438"/>
      </g>
     </g>
    </g>
    <g id="xtick_4">
     <g id="line2d_7">
      <path d="M 181.606818 276.014627 
L 181.606818 10.8 
" clip-path="url(#p9d2ffb4fe9)" style="fill: none; stroke-dasharray: 1.85,0.8; stroke-dashoffset: 0; stroke: #b2b2b2; stroke-width: 0.5"/>
     </g>
     <g id="line2d_8">
      <g>
       <use xlink:href="#m90387d3f4e" x="181.606818" y="276.014627" style="stroke: #000000; stroke-width: 0.8"/>
      </g>
     </g>
     <g id="text_4">
      <!-- Clothes dryer -->
      <g transform="translate(139.377075 332.490183) rotate(-45) scale(0.1 -0.1)">
       <defs>
        <path id="DejaVuSans-43" d="M 4122 4306 
L 4122 3641 
Q 3803 3938 3442 4084 
Q 3081 4231 2675 4231 
Q 1875 4231 1450 3742 
Q 1025 3253 1025 2328 
Q 1025 1406 1450 917 
Q 1875 428 2675 428 
Q 3081 428 3442 575 
Q 3803 722 4122 1019 
L 4122 359 
Q 3791 134 3420 21 
Q 3050 -91 2638 -91 
Q 1578 -91 968 557 
Q 359 1206 359 2328 
Q 359 3453 968 4101 
Q 1578 4750 2638 4750 
Q 3056 4750 3426 4639 
Q 3797 4528 4122 4306 
z
" transform="scale(0.015625)"/>
        <path id="DejaVuSans-6c" d="M 603 4863 
L 1178 4863 
L 1178 0 
L 603 0 
L 603 4863 
z
" transform="scale(0.015625)"/>
        <path id="DejaVuSans-64" d="M 2906 2969 
L 2906 4863 
L 3481 4863 
L 3481 0 
L 2906 0 
L 2906 525 
Q 2725 213 2448 61 
Q 2172 -91 1784 -91 
Q 1150 -91 751 415 
Q 353 922 353 1747 
Q 353 2572 751 3078 
Q 1150 3584 1784 3584 
Q 2172 3584 2448 3432 
Q 2725 3281 2906 2969 
z
M 947 1747 
Q 947 1113 1208 752 
Q 1469 391 1925 391 
Q 2381 391 2643 752 
Q 2906 1113 2906 1747 
Q 2906 2381 2643 2742 
Q 2381 3103 1925 3103 
Q 1469 3103 1208 2742 
Q 947 2381 947 1747 
z
" transform="scale(0.015625)"/>
        <path id="DejaVuSans-79" d="M 2059 -325 
Q 1816 -950 1584 -1140 
Q 1353 -1331 966 -1331 
L 506 -1331 
L 506 -850 
L 844 -850 
Q 1081 -850 1212 -737 
Q 1344 -625 1503 -206 
L 1606 56 
L 191 3500 
L 800 3500 
L 1894 763 
L 2988 3500 
L 3597 3500 
L 2059 -325 
z
" transform="scale(0.015625)"/>
       </defs>
       <use xlink:href="#DejaVuSans-43"/>
       <use xlink:href="#DejaVuSans-6c" x="69.824219"/>
       <use xlink:href="#DejaVuSans-6f" x="97.607422"/>
       <use xlink:href="#DejaVuSans-74" x="158.789062"/>
       <use xlink:href="#DejaVuSans-68" x="197.998047"/>
       <use xlink:href="#DejaVuSans-65" x="261.376953"/>
       <use xlink:href="#DejaVuSans-73" x="322.900391"/>
       <use xlink:href="#DejaVuSans-20" x="375"/>
       <use xlink:href="#DejaVuSans-64" x="406.787109"/>
       <use xlink:href="#DejaVuSans-72" x="470.263672"/>
       <use xlink:href="#DejaVuSans-79" x="511.376953"/>
       <use xlink:href="#DejaVuSans-65" x="570.556641"/>
       <use xlink:href="#DejaVuSans-72" x="632.080078"/>
      </g>
     </g>
    </g>
    <g id="xtick_5">
     <g id="line2d_9">
      <path d="M 217.843182 276.014627 
L 217.843182 10.8 
" clip-path="url(#p9d2ffb4fe9)" style="fill: none; stroke-dasharray: 1.85,0.8; stroke-dashoffset: 0; stroke: #b2b2b2; stroke-width: 0.5"/>
     </g>
     <g id="line2d_10">
      <g>
       <use xlink:href="#m90387d3f4e" x="217.843182" y="276.014627" style="stroke: #000000; stroke-width: 0.8"/>
      </g>
     </g>
     <g id="text_5">
      <!-- Dishwasher -->
      <g transform="translate(182.103353 326.000268) rotate(-45) scale(0.1 -0.1)">
       <defs>
        <path id="DejaVuSans-44" d="M 1259 4147 
L 1259 519 
L 2022 519 
Q 2988 519 3436 956 
Q 3884 1394 3884 2338 
Q 3884 3275 3436 3711 
Q 2988 4147 2022 4147 
L 1259 4147 
z
M 628 4666 
L 1925 4666 
Q 3281 4666 3915 4102 
Q 4550 3538 4550 2338 
Q 4550 1131 3912 565 
Q 3275 0 1925 0 
L 628 0 
L 628 4666 
z
" transform="scale(0.015625)"/>
        <path id="DejaVuSans-77" d="M 269 3500 
L 844 3500 
L 1563 769 
L 2278 3500 
L 2956 3500 
L 3675 769 
L 4391 3500 
L 4966 3500 
L 4050 0 
L 3372 0 
L 2619 2869 
L 1863 0 
L 1184 0 
L 269 3500 
z
" transform="scale(0.015625)"/>
       </defs>
       <use xlink:href="#DejaVuSans-44"/>
       <use xlink:href="#DejaVuSans-69" x="77.001953"/>
       <use xlink:href="#DejaVuSans-73" x="104.785156"/>
       <use xlink:href="#DejaVuSans-68" x="156.884766"/>
       <use xlink:href="#DejaVuSans-77" x="220.263672"/>
       <use xlink:href="#DejaVuSans-61" x="302.050781"/>
       <use xlink:href="#DejaVuSans-73" x="363.330078"/>
       <use xlink:href="#DejaVuSans-68" x="415.429688"/>
       <use xlink:href="#DejaVuSans-65" x="478.808594"/>
       <use xlink:href="#DejaVuSans-72" x="540.332031"/>
      </g>
     </g>
    </g>
    <g id="xtick_6">
     <g id="line2d_11">
      <path d="M 254.079545 276.014627 
L 254.079545 10.8 
" clip-path="url(#p9d2ffb4fe9)" style="fill: none; stroke-dasharray: 1.85,0.8; stroke-dashoffset: 0; stroke: #b2b2b2; stroke-width: 0.5"/>
     </g>
     <g id="line2d_12">
      <g>
       <use xlink:href="#m90387d3f4e" x="254.079545" y="276.014627" style="stroke: #000000; stroke-width: 0.8"/>
      </g>
     </g>
     <g id="text_6">
      <!-- Electric oven -->
      <g transform="translate(213.658449 330.681536) rotate(-45) scale(0.1 -0.1)">
       <defs>
        <path id="DejaVuSans-45" d="M 628 4666 
L 3578 4666 
L 3578 4134 
L 1259 4134 
L 1259 2753 
L 3481 2753 
L 3481 2222 
L 1259 2222 
L 1259 531 
L 3634 531 
L 3634 0 
L 628 0 
L 628 4666 
z
" transform="scale(0.015625)"/>
        <path id="DejaVuSans-76" d="M 191 3500 
L 800 3500 
L 1894 563 
L 2988 3500 
L 3597 3500 
L 2284 0 
L 1503 0 
L 191 3500 
z
" transform="scale(0.015625)"/>
       </defs>
       <use xlink:href="#DejaVuSans-45"/>
       <use xlink:href="#DejaVuSans-6c" x="63.183594"/>
       <use xlink:href="#DejaVuSans-65" x="90.966797"/>
       <use xlink:href="#DejaVuSans-63" x="152.490234"/>
       <use xlink:href="#DejaVuSans-74" x="207.470703"/>
       <use xlink:href="#DejaVuSans-72" x="246.679688"/>
       <use xlink:href="#DejaVuSans-69" x="287.792969"/>
       <use xlink:href="#DejaVuSans-63" x="315.576172"/>
       <use xlink:href="#DejaVuSans-20" x="370.556641"/>
       <use xlink:href="#DejaVuSans-6f" x="402.34375"/>
       <use xlink:href="#DejaVuSans-76" x="463.525391"/>
       <use xlink:href="#DejaVuSans-65" x="522.705078"/>
       <use xlink:href="#DejaVuSans-6e" x="584.228516"/>
      </g>
     </g>
    </g>
    <g id="xtick_7">
     <g id="line2d_13">
      <path d="M 290.315909 276.014627 
L 290.315909 10.8 
" clip-path="url(#p9d2ffb4fe9)" style="fill: none; stroke-dasharray: 1.85,0.8; stroke-dashoffset: 0; stroke: #b2b2b2; stroke-width: 0.5"/>
     </g>
     <g id="line2d_14">
      <g>
       <use xlink:href="#m90387d3f4e" x="290.315909" y="276.014627" style="stroke: #000000; stroke-width: 0.8"/>
      </g>
     </g>
     <g id="text_7">
      <!-- TV and PC -->
      <g transform="translate(259.533562 321.042787) rotate(-45) scale(0.1 -0.1)">
       <defs>
        <path id="DejaVuSans-54" d="M -19 4666 
L 3928 4666 
L 3928 4134 
L 2272 4134 
L 2272 0 
L 1638 0 
L 1638 4134 
L -19 4134 
L -19 4666 
z
" transform="scale(0.015625)"/>
        <path id="DejaVuSans-56" d="M 1831 0 
L 50 4666 
L 709 4666 
L 2188 738 
L 3669 4666 
L 4325 4666 
L 2547 0 
L 1831 0 
z
" transform="scale(0.015625)"/>
        <path id="DejaVuSans-50" d="M 1259 4147 
L 1259 2394 
L 2053 2394 
Q 2494 2394 2734 2622 
Q 2975 2850 2975 3272 
Q 2975 3691 2734 3919 
Q 2494 4147 2053 4147 
L 1259 4147 
z
M 628 4666 
L 2053 4666 
Q 2838 4666 3239 4311 
Q 3641 3956 3641 3272 
Q 3641 2581 3239 2228 
Q 2838 1875 2053 1875 
L 1259 1875 
L 1259 0 
L 628 0 
L 628 4666 
z
" transform="scale(0.015625)"/>
       </defs>
       <use xlink:href="#DejaVuSans-54"/>
       <use xlink:href="#DejaVuSans-56" x="61.083984"/>
       <use xlink:href="#DejaVuSans-20" x="129.492188"/>
       <use xlink:href="#DejaVuSans-61" x="161.279297"/>
       <use xlink:href="#DejaVuSans-6e" x="222.558594"/>
       <use xlink:href="#DejaVuSans-64" x="285.9375"/>
       <use xlink:href="#DejaVuSans-20" x="349.414062"/>
       <use xlink:href="#DejaVuSans-50" x="381.201172"/>
       <use xlink:href="#DejaVuSans-43" x="441.503906"/>
      </g>
     </g>
    </g>
    <g id="xtick_8">
     <g id="line2d_15">
      <path d="M 326.552273 276.014627 
L 326.552273 10.8 
" clip-path="url(#p9d2ffb4fe9)" style="fill: none; stroke-dasharray: 1.85,0.8; stroke-dashoffset: 0; stroke: #b2b2b2; stroke-width: 0.5"/>
     </g>
     <g id="line2d_16">
      <g>
       <use xlink:href="#m90387d3f4e" x="326.552273" y="276.014627" style="stroke: #000000; stroke-width: 0.8"/>
      </g>
     </g>
     <g id="text_8">
      <!-- Light -->
      <g transform="translate(314.278446 302.534267) rotate(-45) scale(0.1 -0.1)">
       <defs>
        <path id="DejaVuSans-4c" d="M 628 4666 
L 1259 4666 
L 1259 531 
L 3531 531 
L 3531 0 
L 628 0 
L 628 4666 
z
" transform="scale(0.015625)"/>
       </defs>
       <use xlink:href="#DejaVuSans-4c"/>
       <use xlink:href="#DejaVuSans-69" x="55.712891"/>
       <use xlink:href="#DejaVuSans-67" x="83.496094"/>
       <use xlink:href="#DejaVuSans-68" x="146.972656"/>
       <use xlink:href="#DejaVuSans-74" x="210.351562"/>
      </g>
     </g>
    </g>
   </g>
   <g id="matplotlib.axis_2">
    <g id="ytick_1">
     <g id="line2d_17">
      <path d="M 50.25 276.014627 
L 349.2 276.014627 
" clip-path="url(#p9d2ffb4fe9)" style="fill: none; stroke-dasharray: 1.85,0.8; stroke-dashoffset: 0; stroke: #b2b2b2; stroke-width: 0.5"/>
     </g>
     <g id="line2d_18">
      <defs>
       <path id="m35d87e6fd7" d="M 0 0 
L 3.5 0 
" style="stroke: #000000; stroke-width: 0.8"/>
      </defs>
      <g>
       <use xlink:href="#m35d87e6fd7" x="50.25" y="276.014627" style="stroke: #000000; stroke-width: 0.8"/>
      </g>
     </g>
     <g id="text_9">
      <!-- 0 -->
      <g transform="translate(40.3875 279.813845) scale(0.1 -0.1)">
       <defs>
        <path id="DejaVuSans-30" d="M 2034 4250 
Q 1547 4250 1301 3770 
Q 1056 3291 1056 2328 
Q 1056 1369 1301 889 
Q 1547 409 2034 409 
Q 2525 409 2770 889 
Q 3016 1369 3016 2328 
Q 3016 3291 2770 3770 
Q 2525 4250 2034 4250 
z
M 2034 4750 
Q 2819 4750 3233 4129 
Q 3647 3509 3647 2328 
Q 3647 1150 3233 529 
Q 2819 -91 2034 -91 
Q 1250 -91 836 529 
Q 422 1150 422 2328 
Q 422 3509 836 4129 
Q 1250 4750 2034 4750 
z
" transform="scale(0.015625)"/>
       </defs>
       <use xlink:href="#DejaVuSans-30"/>
      </g>
     </g>
    </g>
    <g id="ytick_2">
     <g id="line2d_19">
      <path d="M 50.25 244.812906 
L 349.2 244.812906 
" clip-path="url(#p9d2ffb4fe9)" style="fill: none; stroke-dasharray: 1.85,0.8; stroke-dashoffset: 0; stroke: #b2b2b2; stroke-width: 0.5"/>
     </g>
     <g id="line2d_20">
      <g>
       <use xlink:href="#m35d87e6fd7" x="50.25" y="244.812906" style="stroke: #000000; stroke-width: 0.8"/>
      </g>
     </g>
     <g id="text_10">
      <!-- 100 -->
      <g transform="translate(27.6625 248.612125) scale(0.1 -0.1)">
       <defs>
        <path id="DejaVuSans-31" d="M 794 531 
L 1825 531 
L 1825 4091 
L 703 3866 
L 703 4441 
L 1819 4666 
L 2450 4666 
L 2450 531 
L 3481 531 
L 3481 0 
L 794 0 
L 794 531 
z
" transform="scale(0.015625)"/>
       </defs>
       <use xlink:href="#DejaVuSans-31"/>
       <use xlink:href="#DejaVuSans-30" x="63.623047"/>
       <use xlink:href="#DejaVuSans-30" x="127.246094"/>
      </g>
     </g>
    </g>
    <g id="ytick_3">
     <g id="line2d_21">
      <path d="M 50.25 213.611185 
L 349.2 213.611185 
" clip-path="url(#p9d2ffb4fe9)" style="fill: none; stroke-dasharray: 1.85,0.8; stroke-dashoffset: 0; stroke: #b2b2b2; stroke-width: 0.5"/>
     </g>
     <g id="line2d_22">
      <g>
       <use xlink:href="#m35d87e6fd7" x="50.25" y="213.611185" style="stroke: #000000; stroke-width: 0.8"/>
      </g>
     </g>
     <g id="text_11">
      <!-- 200 -->
      <g transform="translate(27.6625 217.410404) scale(0.1 -0.1)">
       <defs>
        <path id="DejaVuSans-32" d="M 1228 531 
L 3431 531 
L 3431 0 
L 469 0 
L 469 531 
Q 828 903 1448 1529 
Q 2069 2156 2228 2338 
Q 2531 2678 2651 2914 
Q 2772 3150 2772 3378 
Q 2772 3750 2511 3984 
Q 2250 4219 1831 4219 
Q 1534 4219 1204 4116 
Q 875 4013 500 3803 
L 500 4441 
Q 881 4594 1212 4672 
Q 1544 4750 1819 4750 
Q 2544 4750 2975 4387 
Q 3406 4025 3406 3419 
Q 3406 3131 3298 2873 
Q 3191 2616 2906 2266 
Q 2828 2175 2409 1742 
Q 1991 1309 1228 531 
z
" transform="scale(0.015625)"/>
       </defs>
       <use xlink:href="#DejaVuSans-32"/>
       <use xlink:href="#DejaVuSans-30" x="63.623047"/>
       <use xlink:href="#DejaVuSans-30" x="127.246094"/>
      </g>
     </g>
    </g>
    <g id="ytick_4">
     <g id="line2d_23">
      <path d="M 50.25 182.409464 
L 349.2 182.409464 
" clip-path="url(#p9d2ffb4fe9)" style="fill: none; stroke-dasharray: 1.85,0.8; stroke-dashoffset: 0; stroke: #b2b2b2; stroke-width: 0.5"/>
     </g>
     <g id="line2d_24">
      <g>
       <use xlink:href="#m35d87e6fd7" x="50.25" y="182.409464" style="stroke: #000000; stroke-width: 0.8"/>
      </g>
     </g>
     <g id="text_12">
      <!-- 300 -->
      <g transform="translate(27.6625 186.208683) scale(0.1 -0.1)">
       <defs>
        <path id="DejaVuSans-33" d="M 2597 2516 
Q 3050 2419 3304 2112 
Q 3559 1806 3559 1356 
Q 3559 666 3084 287 
Q 2609 -91 1734 -91 
Q 1441 -91 1130 -33 
Q 819 25 488 141 
L 488 750 
Q 750 597 1062 519 
Q 1375 441 1716 441 
Q 2309 441 2620 675 
Q 2931 909 2931 1356 
Q 2931 1769 2642 2001 
Q 2353 2234 1838 2234 
L 1294 2234 
L 1294 2753 
L 1863 2753 
Q 2328 2753 2575 2939 
Q 2822 3125 2822 3475 
Q 2822 3834 2567 4026 
Q 2313 4219 1838 4219 
Q 1578 4219 1281 4162 
Q 984 4106 628 3988 
L 628 4550 
Q 988 4650 1302 4700 
Q 1616 4750 1894 4750 
Q 2613 4750 3031 4423 
Q 3450 4097 3450 3541 
Q 3450 3153 3228 2886 
Q 3006 2619 2597 2516 
z
" transform="scale(0.015625)"/>
       </defs>
       <use xlink:href="#DejaVuSans-33"/>
       <use xlink:href="#DejaVuSans-30" x="63.623047"/>
       <use xlink:href="#DejaVuSans-30" x="127.246094"/>
      </g>
     </g>
    </g>
    <g id="ytick_5">
     <g id="line2d_25">
      <path d="M 50.25 151.207744 
L 349.2 151.207744 
" clip-path="url(#p9d2ffb4fe9)" style="fill: none; stroke-dasharray: 1.85,0.8; stroke-dashoffset: 0; stroke: #b2b2b2; stroke-width: 0.5"/>
     </g>
     <g id="line2d_26">
      <g>
       <use xlink:href="#m35d87e6fd7" x="50.25" y="151.207744" style="stroke: #000000; stroke-width: 0.8"/>
      </g>
     </g>
     <g id="text_13">
      <!-- 400 -->
      <g transform="translate(27.6625 155.006962) scale(0.1 -0.1)">
       <defs>
        <path id="DejaVuSans-34" d="M 2419 4116 
L 825 1625 
L 2419 1625 
L 2419 4116 
z
M 2253 4666 
L 3047 4666 
L 3047 1625 
L 3713 1625 
L 3713 1100 
L 3047 1100 
L 3047 0 
L 2419 0 
L 2419 1100 
L 313 1100 
L 313 1709 
L 2253 4666 
z
" transform="scale(0.015625)"/>
       </defs>
       <use xlink:href="#DejaVuSans-34"/>
       <use xlink:href="#DejaVuSans-30" x="63.623047"/>
       <use xlink:href="#DejaVuSans-30" x="127.246094"/>
      </g>
     </g>
    </g>
    <g id="ytick_6">
     <g id="line2d_27">
      <path d="M 50.25 120.006023 
L 349.2 120.006023 
" clip-path="url(#p9d2ffb4fe9)" style="fill: none; stroke-dasharray: 1.85,0.8; stroke-dashoffset: 0; stroke: #b2b2b2; stroke-width: 0.5"/>
     </g>
     <g id="line2d_28">
      <g>
       <use xlink:href="#m35d87e6fd7" x="50.25" y="120.006023" style="stroke: #000000; stroke-width: 0.8"/>
      </g>
     </g>
     <g id="text_14">
      <!-- 500 -->
      <g transform="translate(27.6625 123.805242) scale(0.1 -0.1)">
       <defs>
        <path id="DejaVuSans-35" d="M 691 4666 
L 3169 4666 
L 3169 4134 
L 1269 4134 
L 1269 2991 
Q 1406 3038 1543 3061 
Q 1681 3084 1819 3084 
Q 2600 3084 3056 2656 
Q 3513 2228 3513 1497 
Q 3513 744 3044 326 
Q 2575 -91 1722 -91 
Q 1428 -91 1123 -41 
Q 819 9 494 109 
L 494 744 
Q 775 591 1075 516 
Q 1375 441 1709 441 
Q 2250 441 2565 725 
Q 2881 1009 2881 1497 
Q 2881 1984 2565 2268 
Q 2250 2553 1709 2553 
Q 1456 2553 1204 2497 
Q 953 2441 691 2322 
L 691 4666 
z
" transform="scale(0.015625)"/>
       </defs>
       <use xlink:href="#DejaVuSans-35"/>
       <use xlink:href="#DejaVuSans-30" x="63.623047"/>
       <use xlink:href="#DejaVuSans-30" x="127.246094"/>
      </g>
     </g>
    </g>
    <g id="ytick_7">
     <g id="line2d_29">
      <path d="M 50.25 88.804302 
L 349.2 88.804302 
" clip-path="url(#p9d2ffb4fe9)" style="fill: none; stroke-dasharray: 1.85,0.8; stroke-dashoffset: 0; stroke: #b2b2b2; stroke-width: 0.5"/>
     </g>
     <g id="line2d_30">
      <g>
       <use xlink:href="#m35d87e6fd7" x="50.25" y="88.804302" style="stroke: #000000; stroke-width: 0.8"/>
      </g>
     </g>
     <g id="text_15">
      <!-- 600 -->
      <g transform="translate(27.6625 92.603521) scale(0.1 -0.1)">
       <defs>
        <path id="DejaVuSans-36" d="M 2113 2584 
Q 1688 2584 1439 2293 
Q 1191 2003 1191 1497 
Q 1191 994 1439 701 
Q 1688 409 2113 409 
Q 2538 409 2786 701 
Q 3034 994 3034 1497 
Q 3034 2003 2786 2293 
Q 2538 2584 2113 2584 
z
M 3366 4563 
L 3366 3988 
Q 3128 4100 2886 4159 
Q 2644 4219 2406 4219 
Q 1781 4219 1451 3797 
Q 1122 3375 1075 2522 
Q 1259 2794 1537 2939 
Q 1816 3084 2150 3084 
Q 2853 3084 3261 2657 
Q 3669 2231 3669 1497 
Q 3669 778 3244 343 
Q 2819 -91 2113 -91 
Q 1303 -91 875 529 
Q 447 1150 447 2328 
Q 447 3434 972 4092 
Q 1497 4750 2381 4750 
Q 2619 4750 2861 4703 
Q 3103 4656 3366 4563 
z
" transform="scale(0.015625)"/>
       </defs>
       <use xlink:href="#DejaVuSans-36"/>
       <use xlink:href="#DejaVuSans-30" x="63.623047"/>
       <use xlink:href="#DejaVuSans-30" x="127.246094"/>
      </g>
     </g>
    </g>
    <g id="ytick_8">
     <g id="line2d_31">
      <path d="M 50.25 57.602581 
L 349.2 57.602581 
" clip-path="url(#p9d2ffb4fe9)" style="fill: none; stroke-dasharray: 1.85,0.8; stroke-dashoffset: 0; stroke: #b2b2b2; stroke-width: 0.5"/>
     </g>
     <g id="line2d_32">
      <g>
       <use xlink:href="#m35d87e6fd7" x="50.25" y="57.602581" style="stroke: #000000; stroke-width: 0.8"/>
      </g>
     </g>
     <g id="text_16">
      <!-- 700 -->
      <g transform="translate(27.6625 61.4018) scale(0.1 -0.1)">
       <defs>
        <path id="DejaVuSans-37" d="M 525 4666 
L 3525 4666 
L 3525 4397 
L 1831 0 
L 1172 0 
L 2766 4134 
L 525 4134 
L 525 4666 
z
" transform="scale(0.015625)"/>
       </defs>
       <use xlink:href="#DejaVuSans-37"/>
       <use xlink:href="#DejaVuSans-30" x="63.623047"/>
       <use xlink:href="#DejaVuSans-30" x="127.246094"/>
      </g>
     </g>
    </g>
    <g id="ytick_9">
     <g id="line2d_33">
      <path d="M 50.25 26.40086 
L 349.2 26.40086 
" clip-path="url(#p9d2ffb4fe9)" style="fill: none; stroke-dasharray: 1.85,0.8; stroke-dashoffset: 0; stroke: #b2b2b2; stroke-width: 0.5"/>
     </g>
     <g id="line2d_34">
      <g>
       <use xlink:href="#m35d87e6fd7" x="50.25" y="26.40086" style="stroke: #000000; stroke-width: 0.8"/>
      </g>
     </g>
     <g id="text_17">
      <!-- 800 -->
      <g transform="translate(27.6625 30.200079) scale(0.1 -0.1)">
       <defs>
        <path id="DejaVuSans-38" d="M 2034 2216 
Q 1584 2216 1326 1975 
Q 1069 1734 1069 1313 
Q 1069 891 1326 650 
Q 1584 409 2034 409 
Q 2484 409 2743 651 
Q 3003 894 3003 1313 
Q 3003 1734 2745 1975 
Q 2488 2216 2034 2216 
z
M 1403 2484 
Q 997 2584 770 2862 
Q 544 3141 544 3541 
Q 544 4100 942 4425 
Q 1341 4750 2034 4750 
Q 2731 4750 3128 4425 
Q 3525 4100 3525 3541 
Q 3525 3141 3298 2862 
Q 3072 2584 2669 2484 
Q 3125 2378 3379 2068 
Q 3634 1759 3634 1313 
Q 3634 634 3220 271 
Q 2806 -91 2034 -91 
Q 1263 -91 848 271 
Q 434 634 434 1313 
Q 434 1759 690 2068 
Q 947 2378 1403 2484 
z
M 1172 3481 
Q 1172 3119 1398 2916 
Q 1625 2713 2034 2713 
Q 2441 2713 2670 2916 
Q 2900 3119 2900 3481 
Q 2900 3844 2670 4047 
Q 2441 4250 2034 4250 
Q 1625 4250 1398 4047 
Q 1172 3844 1172 3481 
z
" transform="scale(0.015625)"/>
       </defs>
       <use xlink:href="#DejaVuSans-38"/>
       <use xlink:href="#DejaVuSans-30" x="63.623047"/>
       <use xlink:href="#DejaVuSans-30" x="127.246094"/>
      </g>
     </g>
    </g>
    <g id="text_18">
     <!-- Annual electric consumption [kWh] -->
     <g transform="translate(21.166875 248.856376) rotate(-90) scale(0.12 -0.12)">
      <defs>
       <path id="DejaVuSans-41" d="M 2188 4044 
L 1331 1722 
L 3047 1722 
L 2188 4044 
z
M 1831 4666 
L 2547 4666 
L 4325 0 
L 3669 0 
L 3244 1197 
L 1141 1197 
L 716 0 
L 50 0 
L 1831 4666 
z
" transform="scale(0.015625)"/>
       <path id="DejaVuSans-75" d="M 544 1381 
L 544 3500 
L 1119 3500 
L 1119 1403 
Q 1119 906 1312 657 
Q 1506 409 1894 409 
Q 2359 409 2629 706 
Q 2900 1003 2900 1516 
L 2900 3500 
L 3475 3500 
L 3475 0 
L 2900 0 
L 2900 538 
Q 2691 219 2414 64 
Q 2138 -91 1772 -91 
Q 1169 -91 856 284 
Q 544 659 544 1381 
z
M 1991 3584 
L 1991 3584 
z
" transform="scale(0.015625)"/>
       <path id="DejaVuSans-70" d="M 1159 525 
L 1159 -1331 
L 581 -1331 
L 581 3500 
L 1159 3500 
L 1159 2969 
Q 1341 3281 1617 3432 
Q 1894 3584 2278 3584 
Q 2916 3584 3314 3078 
Q 3713 2572 3713 1747 
Q 3713 922 3314 415 
Q 2916 -91 2278 -91 
Q 1894 -91 1617 61 
Q 1341 213 1159 525 
z
M 3116 1747 
Q 3116 2381 2855 2742 
Q 2594 3103 2138 3103 
Q 1681 3103 1420 2742 
Q 1159 2381 1159 1747 
Q 1159 1113 1420 752 
Q 1681 391 2138 391 
Q 2594 391 2855 752 
Q 3116 1113 3116 1747 
z
" transform="scale(0.015625)"/>
       <path id="DejaVuSans-5b" d="M 550 4863 
L 1875 4863 
L 1875 4416 
L 1125 4416 
L 1125 -397 
L 1875 -397 
L 1875 -844 
L 550 -844 
L 550 4863 
z
" transform="scale(0.015625)"/>
       <path id="DejaVuSans-6b" d="M 581 4863 
L 1159 4863 
L 1159 1991 
L 2875 3500 
L 3609 3500 
L 1753 1863 
L 3688 0 
L 2938 0 
L 1159 1709 
L 1159 0 
L 581 0 
L 581 4863 
z
" transform="scale(0.015625)"/>
       <path id="DejaVuSans-5d" d="M 1947 4863 
L 1947 -844 
L 622 -844 
L 622 -397 
L 1369 -397 
L 1369 4416 
L 622 4416 
L 622 4863 
L 1947 4863 
z
" transform="scale(0.015625)"/>
      </defs>
      <use xlink:href="#DejaVuSans-41"/>
      <use xlink:href="#DejaVuSans-6e" x="68.408203"/>
      <use xlink:href="#DejaVuSans-6e" x="131.787109"/>
      <use xlink:href="#DejaVuSans-75" x="195.166016"/>
      <use xlink:href="#DejaVuSans-61" x="258.544922"/>
      <use xlink:href="#DejaVuSans-6c" x="319.824219"/>
      <use xlink:href="#DejaVuSans-20" x="347.607422"/>
      <use xlink:href="#DejaVuSans-65" x="379.394531"/>
      <use xlink:href="#DejaVuSans-6c" x="440.917969"/>
      <use xlink:href="#DejaVuSans-65" x="468.701172"/>
      <use xlink:href="#DejaVuSans-63" x="530.224609"/>
      <use xlink:href="#DejaVuSans-74" x="585.205078"/>
      <use xlink:href="#DejaVuSans-72" x="624.414062"/>
      <use xlink:href="#DejaVuSans-69" x="665.527344"/>
      <use xlink:href="#DejaVuSans-63" x="693.310547"/>
      <use xlink:href="#DejaVuSans-20" x="748.291016"/>
      <use xlink:href="#DejaVuSans-63" x="780.078125"/>
      <use xlink:href="#DejaVuSans-6f" x="835.058594"/>
      <use xlink:href="#DejaVuSans-6e" x="896.240234"/>
      <use xlink:href="#DejaVuSans-73" x="959.619141"/>
      <use xlink:href="#DejaVuSans-75" x="1011.71875"/>
      <use xlink:href="#DejaVuSans-6d" x="1075.097656"/>
      <use xlink:href="#DejaVuSans-70" x="1172.509766"/>
      <use xlink:href="#DejaVuSans-74" x="1235.986328"/>
      <use xlink:href="#DejaVuSans-69" x="1275.195312"/>
      <use xlink:href="#DejaVuSans-6f" x="1302.978516"/>
      <use xlink:href="#DejaVuSans-6e" x="1364.160156"/>
      <use xlink:href="#DejaVuSans-20" x="1427.539062"/>
      <use xlink:href="#DejaVuSans-5b" x="1459.326172"/>
      <use xlink:href="#DejaVuSans-6b" x="1498.339844"/>
      <use xlink:href="#DejaVuSans-57" x="1556.25"/>
      <use xlink:href="#DejaVuSans-68" x="1655.126953"/>
      <use xlink:href="#DejaVuSans-5d" x="1718.505859"/>
     </g>
    </g>
   </g>
   <g id="patch_3">
    <path d="M 50.25 276.014627 
L 50.25 10.8 
" style="fill: none; stroke: #bcbcbc; stroke-width: 0.8; stroke-linejoin: miter; stroke-linecap: square"/>
   </g>
   <g id="patch_4">
    <path d="M 349.2 276.014627 
L 349.2 10.8 
" style="fill: none; stroke: #bcbcbc; stroke-width: 0.8; stroke-linejoin: miter; stroke-linecap: square"/>
   </g>
   <g id="patch_5">
    <path d="M 50.25 276.014627 
L 349.2 276.014627 
" style="fill: none; stroke: #bcbcbc; stroke-width: 0.8; stroke-linejoin: miter; stroke-linecap: square"/>
   </g>
   <g id="patch_6">
    <path d="M 50.25 10.8 
L 349.2 10.8 
" style="fill: none; stroke: #bcbcbc; stroke-width: 0.8; stroke-linejoin: miter; stroke-linecap: square"/>
   </g>
   <g id="legend_1">
    <g id="patch_7">
     <path d="M 57.25 48.15625 
L 183.298438 48.15625 
Q 185.298438 48.15625 185.298438 46.15625 
L 185.298438 17.8 
Q 185.298438 15.8 183.298438 15.8 
L 57.25 15.8 
Q 55.25 15.8 55.25 17.8 
L 55.25 46.15625 
Q 55.25 48.15625 57.25 48.15625 
z
" style="fill: #ffffff; opacity: 0.8; stroke: #cccccc; stroke-width: 0.5; stroke-linejoin: miter"/>
    </g>
    <g id="PathCollection_19">
     <g>
      <use xlink:href="#me28c722832" x="69.25" y="24.773438" style="fill: #0000ff; stroke: #0000ff; stroke-width: 0.5"/>
     </g>
    </g>
    <g id="text_19">
     <!-- Best energy label -->
     <g transform="translate(87.25 27.398438) scale(0.1 -0.1)">
      <defs>
       <path id="DejaVuSans-42" d="M 1259 2228 
L 1259 519 
L 2272 519 
Q 2781 519 3026 730 
Q 3272 941 3272 1375 
Q 3272 1813 3026 2020 
Q 2781 2228 2272 2228 
L 1259 2228 
z
M 1259 4147 
L 1259 2741 
L 2194 2741 
Q 2656 2741 2882 2914 
Q 3109 3088 3109 3444 
Q 3109 3797 2882 3972 
Q 2656 4147 2194 4147 
L 1259 4147 
z
M 628 4666 
L 2241 4666 
Q 2963 4666 3353 4366 
Q 3744 4066 3744 3513 
Q 3744 3084 3544 2831 
Q 3344 2578 2956 2516 
Q 3422 2416 3680 2098 
Q 3938 1781 3938 1306 
Q 3938 681 3513 340 
Q 3088 0 2303 0 
L 628 0 
L 628 4666 
z
" transform="scale(0.015625)"/>
       <path id="DejaVuSans-62" d="M 3116 1747 
Q 3116 2381 2855 2742 
Q 2594 3103 2138 3103 
Q 1681 3103 1420 2742 
Q 1159 2381 1159 1747 
Q 1159 1113 1420 752 
Q 1681 391 2138 391 
Q 2594 391 2855 752 
Q 3116 1113 3116 1747 
z
M 1159 2969 
Q 1341 3281 1617 3432 
Q 1894 3584 2278 3584 
Q 2916 3584 3314 3078 
Q 3713 2572 3713 1747 
Q 3713 922 3314 415 
Q 2916 -91 2278 -91 
Q 1894 -91 1617 61 
Q 1341 213 1159 525 
L 1159 0 
L 581 0 
L 581 4863 
L 1159 4863 
L 1159 2969 
z
" transform="scale(0.015625)"/>
      </defs>
      <use xlink:href="#DejaVuSans-42"/>
      <use xlink:href="#DejaVuSans-65" x="68.603516"/>
      <use xlink:href="#DejaVuSans-73" x="130.126953"/>
      <use xlink:href="#DejaVuSans-74" x="182.226562"/>
      <use xlink:href="#DejaVuSans-20" x="221.435547"/>
      <use xlink:href="#DejaVuSans-65" x="253.222656"/>
      <use xlink:href="#DejaVuSans-6e" x="314.746094"/>
      <use xlink:href="#DejaVuSans-65" x="378.125"/>
      <use xlink:href="#DejaVuSans-72" x="439.648438"/>
      <use xlink:href="#DejaVuSans-67" x="479.011719"/>
      <use xlink:href="#DejaVuSans-79" x="542.488281"/>
      <use xlink:href="#DejaVuSans-20" x="601.667969"/>
      <use xlink:href="#DejaVuSans-6c" x="633.455078"/>
      <use xlink:href="#DejaVuSans-61" x="661.238281"/>
      <use xlink:href="#DejaVuSans-62" x="722.517578"/>
      <use xlink:href="#DejaVuSans-65" x="785.994141"/>
      <use xlink:href="#DejaVuSans-6c" x="847.517578"/>
     </g>
    </g>
    <g id="PathCollection_20">
     <g>
      <use xlink:href="#m07b02a2456" x="69.25" y="39.451563" style="fill: #ff0000; stroke: #ff0000; stroke-width: 0.5"/>
     </g>
    </g>
    <g id="text_20">
     <!-- Worst energy label -->
     <g transform="translate(87.25 42.076563) scale(0.1 -0.1)">
      <use xlink:href="#DejaVuSans-57"/>
      <use xlink:href="#DejaVuSans-6f" x="93.001953"/>
      <use xlink:href="#DejaVuSans-72" x="154.183594"/>
      <use xlink:href="#DejaVuSans-73" x="195.296875"/>
      <use xlink:href="#DejaVuSans-74" x="247.396484"/>
      <use xlink:href="#DejaVuSans-20" x="286.605469"/>
      <use xlink:href="#DejaVuSans-65" x="318.392578"/>
      <use xlink:href="#DejaVuSans-6e" x="379.916016"/>
      <use xlink:href="#DejaVuSans-65" x="443.294922"/>
      <use xlink:href="#DejaVuSans-72" x="504.818359"/>
      <use xlink:href="#DejaVuSans-67" x="544.181641"/>
      <use xlink:href="#DejaVuSans-79" x="607.658203"/>
      <use xlink:href="#DejaVuSans-20" x="666.837891"/>
      <use xlink:href="#DejaVuSans-6c" x="698.625"/>
      <use xlink:href="#DejaVuSans-61" x="726.408203"/>
      <use xlink:href="#DejaVuSans-62" x="787.6875"/>
      <use xlink:href="#DejaVuSans-65" x="851.164062"/>
      <use xlink:href="#DejaVuSans-6c" x="912.6875"/>
     </g>
    </g>
   </g>
  </g>
 </g>
 <defs>
  <clipPath id="p9d2ffb4fe9">
   <rect x="50.25" y="10.8" width="298.95" height="265.214627"/>
  </clipPath>
 </defs>
</svg>
